<?xml version="1.0" encoding="UTF-8"?> <svg xmlns="http://www.w3.org/2000/svg" version="1.0" viewBox="35 62 330 262"><defs><clipPath id="d"><path d="M 31 32 L 294 32 L 294 295 L 31 295 Z M 31 32"></path></clipPath><clipPath id="e"><path d="M 279.078125 18.882812 L 306.992188 279.585938 L 46.292969 307.5 L 18.375 46.800781 Z M 279.078125 18.882812"></path></clipPath><clipPath id="f"><path d="M 293.035156 149.234375 C 285.324219 77.242188 220.71875 25.132812 148.726562 32.839844 C 76.734375 40.550781 24.625 105.160156 32.332031 177.148438 C 40.042969 249.140625 104.652344 301.25 176.640625 293.542969 C 248.632812 285.832031 300.742188 221.226562 293.035156 149.234375 Z M 293.035156 149.234375"></path></clipPath><clipPath id="g"><path d="M 31 32 L 294 32 L 294 295 L 31 295 Z M 31 32"></path></clipPath><clipPath id="h"><path d="M 279.078125 18.882812 L 307.023438 279.890625 L 46.015625 307.839844 L 18.070312 46.832031 Z M 279.078125 18.882812"></path></clipPath><clipPath id="i"><path d="M 279.078125 18.882812 L 306.992188 279.578125 L 46.296875 307.492188 L 18.382812 46.796875 Z M 279.078125 18.882812"></path></clipPath><clipPath id="j"><path d="M 293.035156 149.230469 C 285.324219 77.242188 220.71875 25.132812 148.730469 32.839844 C 76.742188 40.550781 24.632812 105.15625 32.339844 177.144531 C 40.050781 249.132812 104.65625 301.242188 176.644531 293.535156 C 248.632812 285.824219 300.742188 221.21875 293.035156 149.230469 Z M 293.035156 149.230469"></path></clipPath><clipPath id="c"><path d="M0 0H307V326H0z"></path></clipPath><clipPath id="k"><path d="M 227.691406 113 L 327.441406 113 L 327.441406 262.5 L 227.691406 262.5 Z M 227.691406 113"></path></clipPath><filter id="a" width="100%" height="100%" x="0%" y="0%"><feColorMatrix color-interpolation-filters="sRGB" values="0 0 0 0 1 0 0 0 0 1 0 0 0 0 1 0 0 0 1 0"></feColorMatrix></filter><mask id="b"><g filter="url(#a)"><path fill-opacity=".71" d="M-37.5-37.5H412.5V412.5H-37.5z"></path></g></mask></defs><g mask="url(#b)"><g clip-path="url(#c)" transform="matrix(1, 0, 0, 1, 68, 30)"><g clip-path="url(#d)"><g clip-path="url(#e)"><g clip-path="url(#f)"><path fill="#fbcdcf" d="M 279.078125 18.882812 L 306.992188 279.585938 L 46.292969 307.5 L 18.375 46.800781 Z M 279.078125 18.882812"></path></g></g></g><g clip-path="url(#g)"><g clip-path="url(#h)"><g clip-path="url(#i)"><g clip-path="url(#j)"><path fill="none" stroke="#fbcdcf" stroke-width="10" d="M 174.78961 -0.00123839 C 78.256166 0.0020867 0.000503155 78.255617 -0.00135049 174.788506 C 0.0019746 271.32195 78.255505 349.577613 174.788394 349.579466 C 271.321838 349.576141 349.577501 271.322611 349.579354 174.789722 C 349.576029 78.256278 271.322499 0.000615251 174.78961 -0.00123839 Z M 174.78961 -0.00123839" transform="matrix(0.0798527, 0.745737, -0.745737, 0.0798527, 279.076807, 18.883514)"></path></g></g></g></g></g></g><g clip-path="url(#k)"><path fill="#010101" d="M 325.023438 145.488281 C 324.875 145.449219 324.710938 145.414062 324.546875 145.378906 C 323.515625 145.136719 322.484375 145.265625 321.453125 145.46875 C 317.976562 146.132812 314.777344 145.304688 311.722656 143.683594 C 311.703125 143.648438 311.703125 143.628906 311.683594 143.59375 C 311.683594 143.445312 311.667969 143.296875 311.667969 143.152344 C 311.558594 140.246094 310.949219 137.449219 309.773438 134.78125 C 308.375 131.671875 306.421875 128.929688 304.011719 126.519531 C 299.761719 122.269531 294.613281 119.65625 288.742188 118.40625 C 288.449219 118.351562 288.191406 118.238281 287.953125 118.074219 C 287.457031 117.726562 286.957031 117.394531 286.425781 117.117188 C 284.546875 116.160156 282.578125 115.773438 280.5 116.199219 C 278.957031 116.511719 277.628906 117.300781 276.488281 118.40625 C 276.25 118.644531 276.011719 118.882812 275.753906 119.140625 C 275.625 118.9375 275.515625 118.773438 275.40625 118.589844 C 273.308594 115.132812 268.726562 112.5 264.015625 113.347656 C 262.820312 113.566406 261.699219 113.953125 260.777344 114.800781 C 260.667969 114.910156 260.484375 114.964844 260.5 115.222656 C 263.039062 114.117188 265.636719 113.898438 268.285156 114.632812 C 270.96875 115.386719 273.820312 117.484375 274.503906 119.214844 C 274.484375 119.214844 274.464844 119.214844 274.449219 119.195312 C 274.320312 119.085938 274.207031 118.957031 274.078125 118.867188 C 270.859375 116.234375 267.273438 115.535156 263.335938 116.914062 C 261.347656 117.613281 259.730469 118.902344 258.238281 120.335938 C 257.152344 121.367188 256.453125 122.636719 256.125 124.089844 C 256.011719 124.515625 255.957031 124.9375 255.867188 125.378906 C 253.085938 125.820312 250.804688 127.183594 248.726562 128.984375 C 246.648438 130.789062 245.140625 132.996094 244.183594 135.535156 C 243.613281 135.535156 243.097656 135.554688 242.582031 135.535156 C 241.699219 135.515625 240.835938 135.554688 239.988281 135.792969 C 238.828125 136.085938 238.148438 137.097656 238.3125 138.257812 C 238.40625 138.828125 238.664062 139.289062 239.066406 139.675781 C 240.0625 140.6875 240.722656 141.957031 241.753906 142.875 C 241.664062 143.097656 241.515625 143.167969 241.40625 143.28125 C 239.75 144.695312 238.589844 146.464844 237.835938 148.503906 C 237.375 149.773438 237.265625 151.097656 237.429688 152.441406 C 237.449219 152.570312 237.449219 152.699219 237.707031 152.71875 C 237.871094 152.296875 237.984375 151.816406 238.296875 151.449219 C 238.589844 151.082031 238.847656 150.675781 239.140625 150.308594 C 239.4375 149.902344 239.785156 149.554688 240.136719 149.222656 C 240.484375 148.890625 240.816406 148.578125 241.183594 148.265625 C 241.535156 147.953125 241.882812 147.605469 242.398438 147.347656 C 241.753906 149.148438 241.367188 150.878906 242.066406 152.625 C 241.902344 152.808594 241.71875 152.867188 241.570312 152.9375 C 240.742188 153.363281 239.894531 153.75 239.085938 154.191406 C 236.511719 155.605469 234.285156 157.429688 232.648438 159.910156 C 231.894531 161.035156 231.195312 162.191406 230.605469 163.40625 C 228.671875 167.328125 227.699219 171.429688 227.828125 175.808594 C 227.898438 178.089844 228.195312 180.351562 228.636719 182.597656 C 228.875 183.792969 229.242188 184.96875 229.390625 186.183594 C 229.574219 187.785156 229.5 189.347656 228.710938 190.820312 C 228.617188 190.988281 228.5625 191.1875 228.507812 191.390625 C 228.46875 191.5 228.488281 191.613281 228.671875 191.648438 C 229.226562 191.042969 229.722656 190.378906 229.960938 189.550781 C 230.273438 188.390625 230.402344 187.214844 230.273438 186.039062 C 230.144531 184.878906 229.980469 183.71875 229.941406 182.558594 C 229.886719 180.554688 229.832031 178.550781 229.960938 176.542969 C 230.164062 173.582031 230.972656 170.804688 232.335938 168.191406 C 233.988281 165.007812 236.214844 162.378906 239.398438 160.539062 C 241.535156 159.324219 243.6875 158.144531 245.839844 156.949219 C 245.855469 156.929688 245.910156 156.949219 245.984375 156.949219 C 246.539062 157.335938 247.109375 157.742188 247.769531 158.054688 C 247.625 158.257812 247.4375 158.328125 247.253906 158.421875 C 246.355469 158.882812 245.582031 159.507812 244.863281 160.226562 C 244.550781 160.539062 244.238281 160.851562 243.945312 161.144531 C 241.277344 163.757812 239.398438 166.867188 238.222656 170.398438 C 238.09375 170.765625 237.925781 171.097656 237.707031 171.410156 C 236.070312 173.65625 234.816406 176.101562 234.046875 178.769531 C 233.492188 180.664062 233.234375 182.617188 233.105469 184.582031 C 233.015625 186.019531 233.105469 187.472656 233.492188 188.871094 C 233.605469 189.238281 233.640625 189.605469 233.566406 189.992188 C 233.476562 190.542969 233.4375 191.113281 233.417969 191.6875 C 233.363281 193.324219 233.328125 194.980469 233.089844 196.597656 C 232.847656 198.199219 232.628906 199.816406 232.5 201.4375 C 232.390625 202.742188 232.296875 204.050781 232.167969 205.355469 C 231.910156 207.96875 231.707031 210.597656 232.132812 213.210938 C 232.628906 216.339844 233.695312 219.226562 235.460938 221.859375 C 235.773438 222.320312 236.125 222.742188 236.601562 223.015625 C 237.007812 223.257812 237.191406 223.589844 237.339844 223.992188 C 237.539062 224.507812 237.667969 225.042969 237.78125 225.59375 C 237.707031 225.777344 237.667969 226 237.632812 226.273438 C 237.578125 226.863281 237.742188 227.285156 238.054688 227.507812 C 238.167969 228.351562 238.148438 229.179688 237.984375 230.007812 C 237.285156 233.542969 235.8125 236.632812 233.070312 239.0625 C 232.480469 239.574219 231.984375 240.183594 231.523438 240.828125 C 231.414062 240.992188 231.195312 241.195312 231.378906 241.398438 C 231.578125 241.617188 231.78125 241.359375 231.949219 241.25 C 232.683594 240.789062 233.289062 240.203125 234.007812 239.722656 C 235.5 238.691406 236.585938 237.3125 237.46875 235.765625 C 237.558594 235.621094 237.597656 235.4375 237.816406 235.308594 C 237.742188 235.546875 237.6875 235.730469 237.632812 235.914062 C 237.285156 237.128906 236.75 238.269531 236.234375 239.410156 C 235.738281 240.515625 235.425781 241.671875 235.277344 242.871094 C 235.074219 244.617188 235.09375 246.363281 235.277344 248.113281 C 235.574219 250.707031 236.160156 253.207031 237.210938 255.601562 C 237.484375 256.226562 237.761719 256.832031 238 257.457031 C 238.515625 258.820312 238.847656 260.199219 238.625 261.691406 C 238.589844 261.929688 238.554688 262.207031 238.664062 262.5 C 238.738281 262.445312 238.808594 262.40625 238.828125 262.371094 C 239.050781 261.726562 239.308594 261.066406 239.34375 260.367188 C 239.378906 259.335938 239.179688 258.378906 238.847656 257.421875 C 238.496094 256.355469 238.054688 255.304688 237.726562 254.222656 C 236.878906 251.515625 236.472656 248.757812 236.417969 245.921875 C 236.382812 243.566406 236.75 241.324219 237.871094 239.226562 C 238.351562 238.324219 238.71875 237.367188 239.03125 236.394531 C 239.894531 233.597656 240.375 230.746094 240.558594 227.835938 L 240.632812 227.835938 L 241.40625 227.855469 L 241.421875 228.058594 C 241.441406 228.167969 241.460938 228.5 241.496094 228.792969 C 241.644531 230.320312 242.195312 232.417969 242.839844 233.910156 C 243.742188 236.042969 245.121094 238.175781 246.371094 239.375 C 247.253906 240.21875 247.878906 240.660156 248.855469 241.101562 C 249.738281 241.488281 250.714844 241.765625 251.910156 241.929688 C 252.609375 242.042969 252.828125 242.042969 253.824219 242.023438 C 254.632812 242.003906 255.128906 241.96875 255.550781 241.894531 C 258.386719 241.414062 261.402344 240.054688 264.144531 238.066406 C 265.910156 236.78125 267.660156 235.050781 269.113281 233.171875 C 270.65625 231.167969 271.816406 228.90625 272.351562 226.882812 C 272.609375 225.925781 272.679688 225.445312 272.792969 224.285156 L 272.882812 223.386719 L 273.140625 222.871094 C 273.472656 222.171875 273.765625 221.730469 274.207031 221.269531 C 275.570312 219.851562 277.539062 219.539062 279.15625 220.496094 C 280.226562 221.121094 281.421875 222.777344 281.550781 223.84375 C 281.640625 224.472656 282.121094 226.585938 282.433594 227.671875 C 282.78125 228.851562 283.792969 230.875 284.898438 232.546875 C 285.835938 233.984375 287.640625 235.933594 288.925781 236.964844 C 290.308594 238.066406 292.421875 239.375 294.410156 240.386719 C 297.003906 241.691406 300.148438 242.410156 302.375 242.242188 C 303.753906 242.132812 305.171875 241.765625 306.148438 241.269531 C 306.957031 240.84375 308.117188 239.851562 308.742188 239.0625 C 310.746094 236.464844 312.089844 233.945312 312.824219 231.332031 C 313.230469 231.5 313.617188 231.683594 314.039062 231.71875 C 314.371094 231.757812 314.519531 231.886719 314.628906 232.160156 C 315.21875 233.597656 315.933594 234.976562 316.632812 236.355469 C 316.964844 237.019531 317.371094 237.664062 317.832031 238.234375 C 317.921875 238.324219 317.976562 238.507812 318.199219 238.417969 C 317.996094 237.109375 317.519531 235.878906 317.074219 234.644531 C 318.050781 233.910156 318.382812 233.449219 318.785156 232.328125 C 319.449219 230.503906 319.542969 228.648438 319.117188 226.769531 C 318.804688 225.300781 318.402344 223.84375 318.03125 222.375 C 317.535156 220.351562 317.519531 218.324219 318.144531 216.320312 C 318.402344 215.492188 318.660156 214.644531 318.84375 213.800781 C 319.007812 213.027344 319.210938 212.292969 319.484375 211.554688 C 320.554688 208.703125 321.269531 205.777344 321.640625 202.761719 C 322.042969 199.449219 322.191406 196.15625 321.839844 192.828125 C 321.824219 192.660156 321.824219 192.496094 321.878906 192.347656 C 321.988281 192.109375 321.988281 191.851562 321.988281 191.59375 C 321.96875 189.402344 321.621094 187.269531 321.085938 185.152344 C 320 180.757812 318.273438 176.617188 316.082031 172.660156 C 314.371094 169.589844 312.402344 166.664062 309.957031 164.105469 C 309.917969 164.070312 309.882812 164.015625 309.957031 163.960938 C 310.765625 164.363281 311.539062 164.84375 312.238281 165.429688 C 314.425781 167.269531 316.394531 169.3125 317.847656 171.816406 C 318.105469 172.257812 318.363281 172.699219 318.640625 173.121094 C 318.933594 173.582031 319.265625 174.023438 319.6875 174.371094 C 319.78125 174.445312 319.855469 174.574219 320.039062 174.445312 C 319.652344 172.992188 319.042969 171.613281 318.328125 170.289062 C 317.589844 168.945312 316.707031 167.695312 315.660156 166.554688 C 314.628906 165.449219 313.488281 164.457031 312.21875 163.628906 C 310.949219 162.78125 309.550781 162.175781 308.152344 161.566406 C 309.128906 161.273438 310.085938 161.050781 310.984375 160.757812 C 311.042969 160.777344 311.078125 160.796875 311.113281 160.8125 C 312.421875 162.027344 313.910156 163.058594 314.738281 164.714844 C 314.757812 164.75 314.777344 164.769531 314.792969 164.804688 C 314.921875 165.027344 315.089844 165.15625 315.363281 165.0625 C 315.476562 164.878906 315.457031 164.675781 315.457031 164.476562 C 315.457031 163.90625 315.273438 163.371094 315.035156 162.835938 C 314.628906 161.953125 314.113281 161.144531 313.507812 160.390625 C 313.394531 160.242188 313.230469 160.152344 313.25 159.910156 C 313.394531 159.839844 313.523438 159.765625 313.691406 159.691406 C 315.109375 159.066406 316.46875 158.328125 317.832031 157.574219 C 320.371094 156.195312 322.632812 154.449219 324.691406 152.460938 C 325.0625 152.109375 325.410156 151.742188 325.742188 151.339844 C 326.332031 150.640625 326.828125 149.867188 327.046875 148.964844 C 327.433594 147.328125 326.625 145.929688 325.023438 145.488281 Z M 236.988281 178.238281 C 236.214844 180.738281 235.460938 183.242188 234.6875 185.761719 C 234.523438 186.292969 234.320312 186.808594 234.136719 187.34375 C 234.082031 187.324219 234.046875 187.324219 233.988281 187.308594 C 234.082031 182.816406 234.78125 178.476562 237.027344 174.484375 L 237.136719 174.5 C 237.097656 174.757812 237.0625 175 237.027344 175.238281 C 236.933594 175.789062 236.859375 176.324219 236.933594 176.875 C 236.953125 176.96875 236.933594 177.078125 236.96875 177.152344 C 237.320312 177.5 237.097656 177.867188 236.988281 178.238281 Z M 310.066406 181.417969 C 309.570312 179.875 308.832031 178.421875 307.859375 177.113281 C 307.765625 177.003906 307.621094 176.910156 307.691406 176.746094 C 307.859375 176.597656 307.96875 176.746094 308.0625 176.839844 C 308.558594 177.242188 308.945312 177.738281 309.3125 178.273438 C 310.359375 179.820312 310.984375 181.546875 311.316406 183.371094 C 312.035156 187.308594 311.742188 191.207031 310.5625 195.035156 C 310.414062 195.53125 310.195312 195.992188 309.957031 196.433594 C 309.902344 196.542969 309.863281 196.671875 309.734375 196.726562 C 309.699219 196.671875 309.699219 196.597656 309.71875 196.523438 C 310.304688 194.519531 310.691406 192.476562 310.839844 190.417969 C 311.097656 187.378906 311.003906 184.363281 310.066406 181.417969 Z M 262.140625 167.363281 C 260.171875 166.902344 258.257812 166.296875 256.25 165.746094 C 256.546875 165.617188 256.859375 165.488281 257.152344 165.359375 C 257.28125 165.300781 257.390625 165.320312 257.519531 165.339844 C 259.121094 165.761719 260.613281 166.386719 262.046875 167.160156 C 262.121094 167.199219 262.15625 167.234375 262.140625 167.363281 Z M 297.039062 141.386719 C 294.6875 139.730469 292.957031 137.613281 291.960938 134.910156 C 291.761719 134.339844 291.6875 133.75 291.59375 133.144531 C 291.578125 133.015625 291.59375 132.886719 291.761719 132.792969 C 292.074219 132.957031 292.148438 133.253906 292.238281 133.511719 C 293.289062 136.453125 295.257812 138.71875 297.574219 140.722656 C 297.921875 141.015625 298.328125 141.273438 298.734375 141.585938 C 298.125 141.789062 297.609375 141.753906 297.039062 141.386719 Z M 269.828125 129.425781 C 269.332031 130.933594 268.414062 132.128906 267.105469 133.015625 C 266.554688 133.382812 265.964844 133.65625 265.359375 133.898438 C 264.273438 134.300781 264.273438 134.300781 262.984375 134.0625 C 263.390625 133.84375 263.757812 133.785156 264.089844 133.675781 C 265.210938 133.308594 266.296875 132.8125 267.21875 132.039062 C 268.632812 130.84375 269.371094 129.277344 269.664062 127.476562 C 269.699219 127.21875 269.792969 126.980469 269.773438 126.683594 C 270.125 126.757812 270.125 127.015625 270.125 127.238281 C 270.140625 127.972656 270.070312 128.707031 269.828125 129.425781 Z M 247.199219 172.183594 C 247.824219 171.722656 248.507812 171.375 249.207031 171.097656 C 250.953125 170.417969 252.71875 169.808594 254.558594 169.421875 C 255.882812 169.128906 257.246094 168.964844 258.625 169.039062 C 259.988281 169.09375 261.292969 169.460938 262.5625 169.847656 C 264.9375 170.582031 266.921875 171.945312 268.578125 173.765625 C 269.71875 175.015625 270.328125 176.5625 270.804688 178.164062 C 270.859375 178.367188 270.933594 178.585938 270.730469 178.769531 C 270.457031 178.769531 270.289062 178.621094 270.179688 178.402344 C 270.011719 178.089844 269.828125 177.757812 269.664062 177.445312 C 268.707031 175.585938 267.457031 173.96875 265.820312 172.679688 C 264.089844 171.300781 262.121094 170.566406 259.894531 170.453125 C 256.234375 170.269531 252.664062 170.804688 249.167969 171.832031 C 248.449219 172.035156 247.75 172.277344 247.035156 172.476562 C 247.015625 172.476562 246.996094 172.460938 246.980469 172.460938 C 246.960938 172.257812 247.125 172.238281 247.199219 172.183594 Z M 268.449219 165.746094 C 267.585938 165.027344 266.71875 164.347656 265.652344 163.941406 C 265.984375 163.792969 266.335938 163.832031 266.664062 163.921875 C 267.050781 164.015625 267.417969 164.179688 267.769531 164.382812 C 268.46875 164.789062 269.113281 165.246094 269.699219 165.800781 C 270.730469 166.757812 271.632812 167.824219 272.460938 168.964844 C 272.664062 169.238281 272.847656 169.550781 272.976562 169.867188 C 273.507812 171.078125 273.949219 172.332031 274.207031 173.636719 C 274.261719 173.914062 274.335938 174.1875 274.023438 174.355469 C 273.730469 174.261719 273.675781 173.988281 273.582031 173.765625 C 273.234375 172.847656 272.882812 171.925781 272.535156 171.023438 C 272.238281 170.269531 271.835938 169.589844 271.339844 168.945312 C 270.472656 167.769531 269.554688 166.664062 268.449219 165.746094 Z M 277.300781 169.40625 C 277.390625 169.074219 277.539062 168.761719 277.703125 168.449219 C 278.769531 166.371094 280.226562 164.566406 281.992188 163.058594 C 282.191406 162.890625 282.394531 162.765625 282.671875 162.765625 C 282.910156 162.765625 283.132812 162.726562 283.480469 162.691406 C 282.210938 163.792969 281.125 164.953125 280.1875 166.222656 C 279.25 167.492188 278.496094 168.890625 277.667969 170.25 C 277.300781 170.03125 277.1875 169.753906 277.300781 169.40625 Z M 277.941406 177.519531 C 278.625 174.667969 279.894531 172.109375 281.9375 169.976562 C 283.886719 167.953125 286.058594 166.242188 288.613281 165.027344 C 288.980469 164.84375 289.367188 164.675781 289.773438 164.566406 C 289.976562 164.511719 290.160156 164.457031 290.453125 164.53125 C 290.066406 164.878906 289.71875 165.136719 289.351562 165.339844 C 288.042969 166.058594 286.941406 167.03125 285.890625 168.0625 C 283.683594 170.195312 281.769531 172.570312 280.167969 175.199219 C 279.304688 176.636719 278.625 178.164062 278.238281 179.820312 C 278.21875 179.875 278.199219 179.949219 278.164062 180.019531 C 278.144531 180.058594 278.109375 180.058594 278.054688 180.113281 C 277.777344 180.058594 277.777344 179.835938 277.757812 179.617188 C 277.722656 178.917969 277.777344 178.21875 277.941406 177.519531 Z M 284.402344 174.90625 C 284.546875 174.5 284.789062 174.171875 285.0625 173.839844 C 285.871094 172.882812 286.773438 172 287.695312 171.152344 C 287.96875 170.894531 288.265625 170.691406 288.578125 170.527344 C 289.699219 169.921875 290.859375 169.386719 292.089844 169.074219 C 292.753906 168.910156 293.433594 168.816406 294.132812 168.816406 C 293.582031 169.167969 292.972656 169.367188 292.402344 169.625 C 289.71875 170.859375 287.269531 172.421875 285.285156 174.648438 C 284.878906 175.089844 284.84375 175.128906 284.417969 175.238281 C 284.308594 175.164062 284.363281 175.035156 284.402344 174.90625 Z M 291.777344 177.167969 C 292 176.910156 292.273438 176.746094 292.550781 176.5625 C 293.765625 175.808594 295.089844 175.402344 296.46875 175.128906 C 297.8125 174.851562 299.175781 174.742188 300.535156 174.796875 C 301.53125 174.832031 302.46875 175.054688 303.371094 175.53125 C 301.34375 175.070312 299.320312 175.164062 297.296875 175.53125 C 295.292969 175.898438 293.34375 176.433594 291.648438 177.667969 C 291.503906 177.425781 291.648438 177.296875 291.777344 177.167969 Z M 299.5625 181.363281 C 299.691406 181.273438 299.835938 181.253906 299.984375 181.234375 C 300.902344 181.144531 301.75 181.328125 302.523438 181.859375 C 303.128906 182.285156 303.644531 182.78125 304.105469 183.351562 C 306.148438 185.890625 307.527344 188.742188 308.0625 191.980469 C 308.078125 192.109375 308.152344 192.257812 308.042969 192.402344 C 307.859375 192.238281 307.859375 192 307.785156 191.8125 C 306.921875 189.089844 305.558594 186.644531 303.8125 184.398438 C 303.386719 183.867188 302.929688 183.371094 302.429688 182.929688 C 301.789062 182.359375 301.050781 182.007812 300.1875 181.898438 C 300.003906 181.878906 299.835938 181.824219 299.652344 181.789062 C 299.5625 181.769531 299.488281 181.714844 299.46875 181.621094 C 299.414062 181.53125 299.46875 181.4375 299.5625 181.363281 Z M 291.261719 124.808594 C 291.519531 124.863281 291.761719 124.957031 292 125.046875 C 296.324219 126.886719 299.984375 129.535156 302.578125 133.527344 C 304.125 135.902344 304.988281 138.535156 305.339844 141.347656 C 305.355469 141.496094 305.394531 141.660156 305.300781 141.84375 C 304.988281 141.898438 304.710938 141.769531 304.4375 141.753906 C 304.289062 141.625 304.289062 141.457031 304.289062 141.328125 C 303.753906 136.859375 301.769531 133.125 298.550781 130.015625 C 296.582031 128.136719 294.261719 126.777344 291.832031 125.582031 C 291.429688 125.378906 290.988281 125.214844 290.582031 125.011719 C 290.4375 124.9375 290.234375 124.898438 290.269531 124.605469 C 290.621094 124.625 290.949219 124.734375 291.261719 124.808594 Z M 289.609375 134.539062 C 289.863281 134.523438 289.882812 134.6875 289.921875 134.78125 C 290.105469 135.238281 290.195312 135.71875 290.25 136.214844 C 290.5625 138.976562 290.085938 141.570312 288.742188 144.015625 C 288.523438 144.421875 288.339844 144.878906 287.804688 145.066406 C 287.621094 144.953125 287.527344 144.824219 287.472656 144.640625 C 289.480469 141.570312 289.773438 138.09375 289.609375 134.539062 Z M 281.109375 121.347656 C 283.058594 121.828125 284.695312 122.859375 285.945312 124.421875 C 287.75 126.667969 288.484375 129.207031 288.117188 132.074219 C 288.027344 132.699219 287.914062 133.328125 287.65625 133.914062 C 287.566406 134.136719 287.453125 134.339844 287.234375 134.484375 C 287.839844 131.746094 287.824219 129.058594 286.515625 126.5 C 285.230469 123.945312 283.09375 122.363281 280.335938 121.367188 C 280.667969 121.238281 280.886719 121.292969 281.109375 121.347656 Z M 275.277344 127.273438 C 276.730469 127.109375 278.128906 127.164062 279.453125 127.9375 C 280.425781 128.507812 281.308594 129.132812 282.0625 129.996094 C 282.855469 130.898438 283.351562 131.929688 283.535156 133.105469 C 283.792969 134.761719 283.480469 136.324219 282.746094 137.835938 C 282.578125 138.164062 282.320312 138.421875 282.082031 138.699219 C 281.347656 139.527344 280.480469 140.1875 279.527344 140.722656 C 279.121094 140.960938 278.679688 141.109375 278.183594 141.109375 C 278.199219 140.871094 278.386719 140.796875 278.511719 140.667969 C 279.324219 139.859375 280.167969 139.066406 280.90625 138.183594 C 281.585938 137.355469 281.917969 136.417969 282.082031 135.40625 C 282.210938 134.613281 282.101562 133.859375 281.824219 133.105469 C 281.492188 132.1875 281.050781 131.339844 280.519531 130.53125 C 279.78125 129.351562 278.753906 128.578125 277.410156 128.175781 C 276.5625 127.917969 275.699219 127.695312 274.832031 127.53125 C 274.90625 127.292969 275.109375 127.292969 275.277344 127.273438 Z M 259.582031 123.003906 C 259.746094 122.636719 259.988281 122.304688 260.28125 122.046875 C 262.15625 120.320312 264.367188 119.601562 266.921875 119.953125 C 267.621094 120.042969 268.285156 120.191406 268.929688 120.429688 C 269.609375 120.6875 270.179688 121.074219 270.695312 121.589844 C 270.96875 121.863281 271.171875 122.175781 271.265625 122.675781 C 270.457031 122.214844 269.867188 121.570312 269.058594 121.277344 C 268.246094 120.964844 267.417969 120.835938 266.554688 120.742188 C 265.691406 120.648438 264.84375 120.722656 263.996094 120.90625 C 263.152344 121.09375 262.398438 121.496094 261.660156 121.917969 C 260.90625 122.363281 260.300781 122.949219 259.710938 123.539062 C 259.472656 123.355469 259.527344 123.1875 259.582031 123.003906 Z M 250.675781 134.339844 C 252.019531 131.046875 254.394531 128.929688 257.90625 128.175781 C 259.289062 127.878906 260.667969 127.753906 262.085938 127.9375 C 262.175781 127.953125 262.269531 127.9375 262.398438 128.066406 C 261.035156 128.210938 259.785156 128.433594 258.515625 128.726562 C 255.203125 129.464844 252.828125 131.375 251.359375 134.414062 C 251.117188 134.890625 251.117188 134.890625 250.585938 134.855469 C 250.492188 134.667969 250.621094 134.503906 250.675781 134.339844 Z M 238.257812 199.414062 C 238.257812 199.558594 238.257812 199.707031 238.128906 199.816406 C 237.925781 199.742188 237.910156 199.523438 237.871094 199.375 C 237.816406 199.101562 237.761719 198.84375 237.742188 198.566406 C 237.667969 195.363281 238.109375 192.257812 239.417969 189.292969 C 241.019531 185.6875 243.335938 182.617188 246.28125 180.019531 C 248.066406 178.457031 250.035156 177.152344 252.167969 176.082031 C 252.957031 175.679688 253.804688 175.367188 254.6875 175.183594 C 254.945312 175.128906 255.203125 175.109375 255.480469 175.199219 C 254.980469 175.441406 254.46875 175.640625 253.96875 175.898438 C 250.789062 177.519531 247.9375 179.5625 245.453125 182.117188 C 242.988281 184.65625 241.074219 187.5625 239.765625 190.859375 C 239.105469 192.570312 238.71875 194.335938 238.515625 196.15625 C 238.40625 197.242188 238.238281 198.328125 238.257812 199.414062 Z M 250.953125 212.605469 C 251.046875 213.488281 251.082031 214.390625 251.027344 215.308594 C 248.507812 215.972656 246.242188 217.019531 244.769531 218.199219 C 243.757812 219.007812 243.300781 219.523438 242.710938 220.496094 C 242.046875 221.601562 241.773438 222.375 241.515625 223.972656 L 241.40625 224.65625 L 241.203125 224.65625 C 241.128906 224.65625 240.851562 224.636719 240.503906 224.636719 C 240.410156 223.699219 240.207031 222.796875 239.894531 221.894531 C 239.492188 220.773438 239.125 219.652344 238.71875 218.546875 C 238.570312 218.140625 238.589844 217.773438 238.679688 217.371094 C 239.140625 215.53125 239.804688 213.746094 240.449219 211.960938 C 240.964844 210.542969 241.71875 209.253906 242.675781 208.097656 C 243.023438 207.671875 243.429688 207.304688 243.832031 206.9375 C 244.769531 206.035156 245.507812 204.96875 246.261719 203.921875 C 246.390625 203.753906 246.484375 203.535156 246.703125 203.40625 C 246.941406 203.773438 247.070312 204.160156 247.179688 204.5625 C 247.421875 205.429688 247.511719 206.3125 247.53125 207.214844 C 247.605469 209.441406 247.367188 211.609375 246.574219 213.707031 C 246.1875 214.738281 245.746094 215.730469 245.378906 216.761719 C 245.304688 216.964844 245.140625 217.183594 245.25 217.460938 C 245.726562 217.203125 246.078125 216.835938 246.371094 216.429688 C 247.199219 215.289062 247.898438 214.074219 248.378906 212.75 C 249.1875 210.507812 249.261719 208.1875 249.09375 205.832031 C 248.984375 204.417969 248.746094 203 248.210938 201.675781 C 248.101562 201.398438 248.195312 201.234375 248.339844 201.03125 C 249.148438 199.945312 250.015625 198.878906 250.972656 197.886719 C 251.101562 197.757812 251.175781 197.589844 251.429688 197.554688 C 250.933594 199.285156 250.804688 201.050781 250.714844 202.816406 C 250.511719 206.089844 250.585938 209.347656 250.953125 212.605469 Z M 249.277344 185.796875 C 247.714844 188.042969 246.574219 190.488281 245.875 193.15625 C 245.726562 193.765625 245.65625 194.371094 245.597656 194.996094 C 245.582031 195.199219 245.636719 195.4375 245.453125 195.660156 C 245.101562 194.628906 245.046875 193.636719 245.285156 192.625 C 245.488281 191.742188 245.726562 190.859375 246.003906 189.992188 C 247.035156 186.753906 248.964844 184.085938 251.246094 181.640625 C 253.015625 179.761719 255.238281 178.769531 257.761719 178.328125 C 259.066406 178.089844 260.355469 177.921875 261.679688 177.980469 C 264.621094 178.109375 267.253906 179.027344 269.371094 181.160156 C 269.976562 181.769531 270.566406 182.394531 271.136719 183.019531 C 271.558594 183.480469 271.761719 184.03125 271.851562 184.65625 C 271.503906 184.675781 271.355469 184.511719 271.246094 184.308594 C 271.007812 183.867188 270.65625 183.515625 270.308594 183.1875 C 269.757812 182.6875 269.242188 182.136719 268.6875 181.640625 C 267.273438 180.332031 265.542969 179.691406 263.703125 179.339844 C 260.519531 178.714844 257.539062 179.394531 254.742188 180.902344 C 252.515625 182.082031 250.714844 183.757812 249.277344 185.796875 Z M 287.527344 216.027344 C 286.1875 216.542969 284.714844 217.371094 283.738281 218.199219 C 283.390625 218.492188 282.910156 218.953125 282.597656 219.320312 C 282.578125 219.300781 282.5625 219.265625 282.523438 219.28125 C 282.304688 219.394531 282.339844 219.742188 282.101562 219.761719 C 281.84375 219.78125 281.824219 219.980469 281.769531 220.128906 C 281.679688 220.40625 281.660156 220.699219 281.660156 220.976562 L 281.402344 220.664062 C 280.539062 219.632812 279.195312 218.839844 277.886719 218.601562 C 275.976562 218.269531 273.988281 219.171875 272.71875 220.957031 L 272.441406 221.34375 L 272.183594 220.828125 C 271.539062 219.503906 270.105469 218.070312 268.503906 217.113281 C 267.878906 216.742188 266.941406 216.265625 266.351562 216.027344 C 266.113281 215.933594 265.890625 215.84375 265.890625 215.824219 C 265.890625 215.824219 266.921875 215.804688 268.597656 215.824219 C 270.269531 215.824219 272.589844 215.824219 275.128906 215.84375 C 280.226562 215.859375 285.15625 215.898438 286.074219 215.914062 L 287.769531 215.933594 Z M 301.472656 214.554688 C 300.390625 214.425781 299.121094 214.371094 297.851562 214.351562 C 297.078125 214.351562 296.304688 214.351562 295.53125 214.390625 C 294.152344 214.460938 293.269531 214.460938 290.214844 214.425781 C 288.210938 214.40625 284.015625 214.40625 280.921875 214.425781 C 277.816406 214.445312 272.867188 214.445312 269.921875 214.425781 C 266.425781 214.40625 263.667969 214.40625 261.992188 214.445312 C 260.574219 214.480469 258.753906 214.5 257.945312 214.480469 C 256.269531 214.480469 254.816406 214.574219 253.398438 214.792969 L 253.398438 214.71875 C 253.527344 212.253906 253.34375 209.789062 253.125 207.34375 C 252.902344 204.96875 252.773438 202.613281 252.941406 200.242188 C 253.070312 198.660156 253.34375 197.09375 253.953125 195.605469 C 254.082031 195.292969 254.246094 195.050781 254.539062 194.851562 C 256.453125 193.523438 258.515625 192.476562 260.742188 191.796875 C 262.15625 191.355469 263.609375 191.132812 265.101562 191.28125 C 266.460938 191.410156 267.769531 191.8125 269.039062 192.367188 C 269.738281 192.660156 270.457031 192.917969 271.191406 193.15625 C 272.40625 193.5625 273.582031 193.488281 274.777344 193.101562 C 276.914062 192.441406 279.046875 191.757812 281.199219 191.113281 C 283.703125 190.359375 286.242188 189.972656 288.851562 190.304688 C 289.40625 190.378906 289.976562 190.378906 290.492188 190.691406 C 295.511719 193.691406 299.285156 197.792969 301.675781 203.128906 C 302.503906 204.96875 303 206.882812 303.058594 208.886719 C 303.113281 210.488281 303.074219 212.089844 303.148438 213.691406 C 303.167969 214.058594 303.183594 214.40625 303.203125 214.773438 C 302.742188 214.71875 302.230469 214.644531 301.472656 214.554688 Z M 301.640625 192.84375 C 300.113281 189.972656 297.960938 187.710938 295.183594 186.019531 C 292.476562 184.363281 289.589844 183.203125 286.5 182.617188 C 284.859375 182.300781 283.222656 182.359375 281.605469 182.503906 C 280.351562 182.617188 279.175781 182.910156 278 183.371094 C 277.6875 183.5 277.335938 183.628906 276.949219 183.628906 C 276.988281 183.386719 277.1875 183.332031 277.335938 183.242188 C 279.175781 182.15625 281.179688 181.75 283.277344 181.660156 C 286.71875 181.492188 289.902344 182.46875 292.972656 183.902344 C 294.59375 184.65625 296.121094 185.597656 297.539062 186.679688 C 299.082031 187.859375 300.390625 189.277344 301.417969 190.949219 C 302.984375 193.46875 304.160156 196.15625 305.136719 198.953125 C 305.796875 200.882812 306.367188 202.835938 306.976562 204.785156 C 307.011719 204.878906 307.03125 204.949219 306.957031 205.078125 C 306.773438 204.878906 306.679688 204.65625 306.570312 204.433594 C 305.871094 203.054688 305.339844 201.601562 304.804688 200.148438 C 303.902344 197.664062 302.890625 195.199219 301.640625 192.84375 Z M 312.292969 221.011719 C 311.464844 219.320312 310.121094 217.738281 308.648438 216.800781 C 307.710938 216.191406 306.773438 215.769531 305.355469 215.363281 C 305.28125 215.34375 305.210938 215.328125 305.136719 215.308594 C 305.136719 214.460938 305.191406 213.597656 305.320312 212.734375 C 305.523438 211.132812 305.761719 209.53125 305.796875 207.894531 C 306 207.894531 306.039062 208.058594 306.109375 208.171875 C 306.441406 208.574219 306.734375 209.015625 307.085938 209.421875 C 307.730469 210.175781 308.484375 210.800781 309.386719 211.261719 C 310.175781 211.664062 310.96875 212.070312 311.777344 212.476562 C 312.953125 213.046875 313.542969 214.003906 313.691406 215.253906 C 313.894531 216.964844 313.691406 218.640625 313.433594 220.3125 C 313.269531 221.363281 313.175781 222.410156 313.140625 223.441406 C 312.9375 222.613281 312.660156 221.765625 312.292969 221.011719 Z M 313.820312 230.5625 C 313.542969 230.414062 313.285156 230.265625 313.027344 230.121094 C 313.140625 229.585938 313.230469 229.035156 313.304688 228.480469 L 313.324219 228.296875 C 313.433594 228.980469 313.597656 229.640625 313.839844 230.285156 C 313.875 230.375 313.894531 230.433594 313.820312 230.5625 Z M 317.664062 225.851562 C 318.253906 227.726562 318.328125 229.640625 318.160156 231.574219 C 318.070312 232.492188 317.71875 233.339844 317.167969 234.09375 C 317.132812 234.148438 317.074219 234.203125 317.019531 234.242188 C 317.003906 234.257812 316.949219 234.257812 316.890625 234.277344 C 316.25 232.511719 315.382812 230.820312 314.867188 228.996094 C 314.777344 228.683594 314.703125 228.351562 314.648438 228.039062 C 315.273438 228.039062 316.0625 227.949219 316.359375 227.820312 C 316.707031 227.671875 316.929688 227.378906 317.019531 226.972656 C 317.074219 226.714844 317.039062 226.109375 316.964844 225.742188 C 316.929688 225.59375 316.835938 225.390625 316.746094 225.261719 C 316.394531 224.800781 315.734375 224.636719 314.390625 224.710938 C 314.390625 224.636719 314.390625 224.582031 314.390625 224.507812 C 314.390625 222.945312 314.519531 221.378906 314.722656 219.816406 C 314.921875 218.179688 314.980469 216.542969 314.554688 214.941406 C 314.464844 214.609375 314.351562 214.296875 314.207031 213.855469 C 315.363281 214.609375 316.101562 215.546875 316.5625 216.707031 C 316.617188 216.871094 316.632812 217.019531 316.597656 217.183594 C 316.101562 219.226562 316.359375 221.234375 316.890625 223.21875 C 317.148438 224.101562 317.390625 224.96875 317.664062 225.851562 Z M 317.445312 194.980469 C 317.1875 196.726562 316.890625 198.472656 316.320312 200.148438 C 316.136719 200.699219 315.917969 201.234375 315.679688 201.769531 C 315.640625 201.859375 315.605469 201.96875 315.476562 202.007812 C 315.421875 201.785156 315.53125 201.582031 315.566406 201.382812 C 316.285156 198.089844 316.835938 194.757812 316.910156 191.390625 C 317.003906 187.894531 316.433594 184.527344 314.867188 181.382812 C 314.609375 180.886719 314.371094 180.371094 313.949219 179.964844 C 313.839844 179.855469 313.726562 179.746094 313.875 179.597656 C 314.023438 179.449219 314.167969 179.488281 314.296875 179.636719 C 314.425781 179.761719 314.539062 179.929688 314.648438 180.058594 C 316.378906 181.972656 317.09375 184.308594 317.519531 186.792969 C 317.960938 189.515625 317.847656 192.257812 317.445312 194.980469 Z M 317.445312 194.980469"></path></g><path fill="#ff914d" d="M248.727 136.125C251.746 135.793 254.742 135.238 257.777 134.91 260.098 134.652 262.398 134.781 264.68 135.238 267.438 135.809 269.941 136.934 272.168 138.664 274.832 140.742 277.242 143.098 279.379 145.727 279.672 146.094 279.93 146.5 280.188 146.887 280.391 147.199 280.48 147.512 280.41 147.859 280.336 148.285 280.371 148.727 280.168 149.188 279.047 148.652 277.941 148.137 276.84 147.621 275.719 147.09 274.613 146.535 273.547 145.91 272.496 145.305 271.449 144.66 270.398 144.016 269.352 143.355 268.359 142.617 267.363 141.883 266.406 141.164 265.508 140.336 264.496 139.563 264.383 139.93 264.586 140.043 264.715 140.172 265.875 141.387 267.105 142.527 268.43 143.539 271.098 145.563 273.969 147.254 276.988 148.688 277.117 148.762 277.301 148.781 277.43 149 275.789 148.836 274.227 148.672 272.664 148.543 271.098 148.414 269.535 148.32 267.898 148.414 268.027 148.727 268.211 148.727 268.375 148.762 269.371 148.965 270.398 149.059 271.41 149.188 274.207 149.555 277.023 149.902 279.801 150.398 279.84 150.398 279.855 150.438 279.895 150.457 279.93 150.586 279.895 150.715 279.84 150.824 279.543 151.668 279.082 152.441 278.496 153.125 278.293 153.363 278.035 153.508 277.703 153.566 276.434 153.84 275.129 153.84 273.84 153.879 272.68 153.914 271.504 153.879 270.344 153.934 269 154.008 267.641 153.859 266.297 153.766 264.715 153.656 263.133 153.621 261.551 153.453 258.938 153.195 256.418 152.59 254.027 151.469 252.387 150.715 250.934 149.699 249.48 148.633 246.371 146.391 243.574 143.723 240.965 140.871 240.449 140.301 239.949 139.711 239.582 139.031 239.473 138.828 239.363 138.605 239.309 138.387 239.105 137.504 239.547 136.824 240.43 136.637 241.09 136.492 241.773 136.453 242.434 136.473 244.551 136.566 246.629 136.363 248.727 136.125ZM238.297 174.594C238.277 174.688 238.223 174.797 238.367 174.887 238.977 174.172 239.73 173.637 240.484 173.102 241.367 172.461 242.25 171.816 243.172 171.207 246.777 168.871 250.586 166.941 254.504 165.191 259.215 163.113 264.016 161.328 269.02 160.078 269.941 159.855 270.859 159.656 271.891 159.434 270.586 158.184 269.664 156.785 269.203 155.148 269.02 155.035 268.855 155.055 268.688 155.055 267.16 155.02 265.637 154.852 264.109 154.668 263.039 154.539 261.992 154.41 260.906 154.648 259.785 154.891 258.645 155.035 257.52 155.293 254.926 155.918 252.406 156.766 250.09 158.129 248.082 159.305 246.168 160.594 244.551 162.266 241.219 165.762 239.289 169.938 238.297 174.594ZM323.992 151.742C324.656 151.137 325.227 150.457 325.688 149.684 325.926 149.277 326.129 148.855 326.184 148.359 326.273 147.418 325.797 146.684 324.895 146.406 324.234 146.207 323.551 146.094 322.852 146.188 322.281 146.262 321.695 146.352 321.125 146.426 319.578 146.629 318.051 146.684 316.488 146.406 314.887 146.133 313.414 145.488 311.941 144.863 309.145 143.668 306.223 142.914 303.203 142.563 300.535 142.25 297.922 142.582 295.328 143.152 293.344 143.594 291.465 144.348 289.625 145.156 289.168 145.359 288.723 145.617 288.266 145.875 288.707 147.09 288.707 148.34 289.074 149.57 289.992 149.113 290.859 148.672 291.723 148.211 294.648 146.648 297.738 146.207 300.996 146.848 301.73 146.996 302.43 147.234 303.129 147.547 303.352 147.66 303.59 147.789 303.5 148.063 303.371 148.156 303.277 148.117 303.184 148.082 301.254 147.512 299.285 147.363 297.281 147.477 296.25 147.531 295.258 147.75 294.281 148.082 293.047 148.504 291.926 149.129 290.75 149.699 290.453 149.848 290.141 149.957 289.883 150.16 289.992 150.309 290.141 150.289 290.289 150.309 291.742 150.512 293.195 150.527 294.648 150.363 295.09 150.309 295.512 150.27 295.953 150.234 296.141 150.215 296.359 150.18 296.453 150.457 296.324 150.73 296.027 150.785 295.77 150.859 293.527 151.523 291.246 151.578 288.91 151.043 288.633 151.504 288.301 151.926 287.898 152.258 287.711 152.406 287.676 152.57 287.695 152.793 287.75 153.234 287.879 153.637 288.027 154.063 288.281 154.836 288.578 155.605 288.797 156.398 288.891 156.746 289.074 156.949 289.367 157.133 292 158.68 294.797 159.785 297.758 160.48 300.867 161.219 303.977 161.273 307.086 160.703 311.832 159.82 316.102 157.742 320.074 155.055 321.512 154.063 322.742 152.883 323.992 151.742ZM280.445 161.695C282.082 161.68 283.684 161.621 285.266 161.164 285.781 161.016 286.258 160.813 286.699 160.52 287.621 159.91 288.098 159.066 288.082 157.945 288.063 157.246 287.914 156.563 287.711 155.902 287.418 154.98 287.086 154.078 287.012 153.105 287.012 153.086 286.977 153.051 286.941 153.012 286.758 153.051 286.629 153.195 286.5 153.309 285.836 153.82 285.172 154.336 284.531 154.891 282.047 157.004 279.141 157.594 275.992 157.227 275.809 157.207 275.625 157.188 275.461 157.098 275.277 157.004 275.129 156.895 275.129 156.676 275.332 156.418 275.605 156.453 275.848 156.453 276.82 156.453 277.777 156.453 278.734 156.324 280.539 156.086 282.211 155.551 283.648 154.375 284.695 153.508 285.742 152.68 286.848 151.91 287.199 151.652 287.547 151.375 287.824 151.043 288.098 150.73 288.227 150.383 288.098 149.941 287.84 148.945 287.73 147.934 287.492 146.941 287.086 145.285 286.426 144.551 284.973 144.273 283.316 143.961 281.68 144.035 280.039 144.422 279.895 144.457 279.711 144.457 279.617 144.68 279.895 145.027 280.168 145.414 280.465 145.766 280.684 145.637 280.465 145.379 280.668 145.285 280.906 145.578 280.922 145.578 280.961 145.949 281.125 147.125 281.18 148.305 281.07 149.5 280.906 151.043 280.352 152.426 279.359 153.637 278.883 154.207 278.313 154.648 277.613 154.906 276.305 155.387 274.926 155.535 273.527 155.551 273.344 155.551 273.16 155.551 273.086 155.293 273.453 154.906 274.008 155.09 274.43 154.816 272.977 154.777 271.559 154.742 270.125 154.926 270.125 155.02 270.125 155.055 270.141 155.09 270.914 156.73 271.98 158.164 273.324 159.359 273.949 159.91 274.648 160.371 275.441 160.684 277.059 161.309 278.699 161.715 280.445 161.695ZM320.371 187.363C320.332 186.645 320.168 185.965 319.965 185.281 318.215 178.973 315.383 173.195 311.555 167.914 310.031 165.801 308.336 163.813 306.332 162.121 306.094 161.918 305.871 161.824 305.539 161.863 304.18 161.973 302.816 162.027 301.438 161.953 299.727 161.863 298.035 161.551 296.398 161.051 293.859 160.297 291.465 159.25 289.293 157.723 289.238 157.688 289.184 157.629 289.055 157.703 289.148 158.809 288.871 159.82 288.098 160.758 288.926 160.926 289.68 161.09 290.398 161.293 293.711 162.25 296.801 163.684 299.762 165.449 303.867 167.934 307.637 170.84 311.023 174.242 311.797 175.016 312.531 175.828 313.25 176.652 316.047 179.82 318.473 183.258 320.223 187.121 320.277 187.215 320.332 187.289 320.371 187.363ZM257.594 215.512C257.32 215.512 257.023 215.512 256.73 215.531 252.977 215.621 250.234 216.211 247.844 217.441 246.609 218.086 245.582 218.77 244.883 219.449 244.387 219.926 243.574 220.883 243.391 221.215 243.078 221.82 242.691 223.238 242.473 224.746 242.324 225.742 242.324 227.711 242.473 228.852 242.656 230.191 242.84 231.004 243.227 232.18 244.074 234.773 245.141 236.594 246.813 238.25 247.586 239.004 248.137 239.41 249.277 240.035 250.402 240.645 251.375 240.938 252.609 241.031 255.055 241.23 258.293 240.402 260.945 238.895 265.305 236.43 268.688 232.73 270.512 228.445 270.711 227.965 271.227 226.254 271.41 225.465 271.598 224.672 271.633 224.176 271.613 223.203 271.598 222.484 271.578 222.375 271.41 221.766 271.191 220.992 270.988 220.59 270.547 220.035 269.188 218.344 266.52 216.945 263.297 216.23 261.109 215.695 259.563 215.512 257.594 215.512ZM297.48 215.879C294.703 215.844 292.074 216.211 289.59 216.965 287.582 217.57 285.984 218.398 284.512 219.613 283.277 220.609 283.004 221.012 282.781 222.004 282.727 222.301 282.707 222.559 282.746 223.184 282.801 224.543 283.133 226.07 283.629 227.34 284.09 228.48 285.063 230.32 285.727 231.297 287.621 234.039 288.742 235.215 291.008 236.871 293.73 238.859 297.207 240.367 299.855 240.734 301.531 240.973 303.148 240.883 304.27 240.516 305.098 240.238 306.039 239.688 306.699 239.098 307.195 238.656 308.117 237.352 309.109 235.711 310.086 234.094 311.113 231.629 311.574 229.824 311.758 229.145 311.926 228.152 311.98 227.469 312.035 226.77 312 225.113 311.906 224.488 311.613 222.539 310.875 220.883 309.789 219.613 309.074 218.785 307.582 217.773 306.406 217.297 305.266 216.836 304.77 216.707 302.688 216.375 300.887 216.063 299.156 215.898 297.48 215.879ZM297.48 215.879"></path><path fill="none" stroke="#ff914d" stroke-width="8.75" d="M 10.497975 31.001315 L 0.666007 31.000991 C 1.046853 30.669679 1.333416 30.104962 1.528751 29.307185 C 1.730886 28.503989 1.831869 27.692457 1.832389 26.866479 L 1.832102 2.967064 C 1.831294 2.125467 1.7313 1.312882 1.529412 0.525907 C 1.334323 -0.266486 1.048506 -0.830912 0.668905 -1.167714 L 9.334383 -1.166168 L 16.729456 15.80038 L 24.094726 -1.165828 L 32.76055 -1.167336 C 32.385123 -0.829225 32.09856 -0.264508 31.897806 0.526469 C 31.697742 1.311337 31.596414 2.125924 31.597222 2.967521 L 31.597509 26.866935 C 31.597334 27.689858 31.696983 28.505499 31.897145 29.307747 C 32.097998 30.103886 32.38687 30.668656 32.761052 30.998659 L 22.932139 30.998679 C 23.309585 30.670077 23.596839 30.099251 23.793209 29.29231 C 23.99367 28.476549 24.095343 27.658907 24.095863 26.832929 L 24.094839 12.44059 L 16.729704 30.062693 L 9.334357 12.331953 L 9.332465 26.832244 C 9.331945 27.658222 9.434303 28.477263 9.633084 29.29173 C 9.835611 30.100433 10.124138 30.668258 10.497975 31.001315 Z M 10.497975 31.001315" transform="matrix(1.262618, -0.142673, 0.142673, 1.262618, 85.552499, 119.171373)"></path><path fill="none" stroke="#ff914d" stroke-width="8.75" d="M 12.29618 31.497879 C 10.05397 31.495106 8.083505 30.99065 6.378641 29.98431 C 4.683095 28.9752 3.360941 27.553864 2.415251 25.720404 C 1.472734 23.883971 1.001175 21.755394 1.000675 19.331601 C 1.000778 16.889373 1.473602 14.757926 2.416174 12.934088 C 3.361718 11.113424 4.681609 9.695668 6.378719 8.687066 C 8.082175 7.67252 10.055059 7.165098 12.294297 7.164698 C 14.564261 7.165305 16.546916 7.673236 18.24226 8.688491 C 19.947023 9.697904 21.269379 11.113095 22.215472 12.934265 C 23.158392 14.758407 23.62985 16.890057 23.629746 19.332285 C 23.630247 21.756078 23.157524 23.884452 22.21465 25.717508 C 21.271675 27.553636 19.945538 28.974263 18.242283 29.982663 C 16.545173 30.991265 14.563172 31.495313 12.29618 31.497879 Z M 8.000259 19.36425 C 7.99804 21.120492 8.382259 22.535682 9.146972 23.603472 C 9.918031 24.665318 10.964814 25.197929 12.296641 25.198535 C 13.628468 25.199141 14.685529 24.667842 15.461678 23.604437 C 16.241101 22.534987 16.631973 21.120604 16.631119 19.364261 C 16.633942 17.589583 16.240606 16.171019 15.460329 15.10887 C 14.686399 14.040778 13.630498 13.504792 12.295599 13.504085 C 10.966844 13.50358 9.915828 14.038153 9.145623 15.107905 C 8.381764 16.171714 8.000009 17.589471 8.000259 19.36425 Z M 8.000259 19.36425" transform="matrix(1.26997, -0.04164, 0.04164, 1.26997, 129.81483, 114.47548)"></path><path fill="none" stroke="#ff914d" stroke-width="8.75" d="M -1.334546 10.899753 C -0.508714 10.856541 0.373217 10.708807 1.317227 10.453157 C 2.261236 10.197508 3.195571 9.87464 4.117163 9.484714 C 5.038754 9.094788 5.904443 8.695473 6.714389 8.28984 C 7.527085 7.877906 8.209376 7.503579 8.764333 7.1667 L 8.765223 14.831901 L 12.165258 8.035406 C 12.611284 7.7935 13.080728 7.58731 13.579889 7.419584 C 14.078891 7.248789 14.641041 7.167041 15.265859 7.165131 C 17.374597 7.165614 19.041557 7.783346 20.26076 9.02172 C 21.488852 10.253472 22.100818 12.123909 22.099889 14.635943 L 22.101584 14.903676 L 25.534926 8.037713 C 25.974651 7.793059 26.444094 7.586869 26.943256 7.419143 C 27.445488 7.251257 28.007478 7.166439 28.626155 7.164851 C 30.741033 7.165012 32.411224 7.785654 33.630267 9.020957 C 34.852218 10.25303 35.461114 12.123629 35.463255 14.635501 L 35.461144 26.832283 C 35.461216 27.657294 35.562597 28.477004 35.762218 29.291573 C 35.964589 30.099842 36.249921 30.66981 36.624354 31.001157 L 27.462953 31.000297 C 27.84276 30.669504 28.130216 30.103427 28.325644 29.308206 C 28.526729 28.503453 28.625862 27.691722 28.625791 26.866711 L 28.627241 16.304601 C 28.626759 15.236417 28.349745 14.413584 27.796359 13.839171 C 27.242651 13.258618 26.553292 12.968377 25.731351 12.968288 C 25.020251 12.968555 24.419137 13.129302 23.931398 13.456507 C 23.443338 13.777573 23.052198 14.185919 22.761207 14.684456 C 22.473287 15.182833 22.254031 15.699165 22.100209 16.230544 L 22.100848 26.832564 C 22.100919 27.657575 22.19923 28.477445 22.392712 29.292336 C 22.595082 30.100604 22.883484 30.670412 23.264058 31.001438 L 14.102657 31.000578 C 14.476323 30.670106 14.763779 30.104029 14.965347 29.308486 C 15.166433 28.503734 15.265566 27.692003 15.265495 26.866992 L 15.266944 16.304882 C 15.266463 15.236698 14.986379 14.414025 14.426852 13.839933 C 13.873144 13.259381 13.186855 12.968979 12.367984 12.968729 C 11.32129 12.968086 10.519929 13.302467 9.96067 13.968961 C 9.407551 14.635135 9.008235 15.357907 8.762563 16.134208 L 8.765272 26.834629 C 8.765343 27.65964 8.863494 28.476441 9.066185 29.290849 C 9.265486 30.099279 9.556958 30.668926 9.934461 31.000112 L 0.76385 30.999734 C 1.143657 30.668941 1.434344 30.105773 1.635751 29.307161 C 1.836997 28.505478 1.935969 27.690677 1.935898 26.865666 L 1.93733 15.83256 C 1.93692 15.589387 1.911021 15.212097 1.862705 14.70053 C 1.820688 14.191712 1.697406 13.659441 1.496089 13.106625 C 1.297521 12.547509 0.973867 12.06882 0.528359 11.673467 C 0.08867 11.271653 -0.531239 11.073209 -1.33476 11.072156 Z M -1.334546 10.899753" transform="matrix(1.268917, 0.0663963, -0.0663963, 1.268917, 163.280413, 113.128821)"></path><path fill="#fff" d="M 13.265625 -1.5 L 0.84375 -0.09375 C 1.257812 -0.570312 1.539062 -1.332031 1.6875 -2.375 C 1.832031 -3.414062 1.84375 -4.453125 1.71875 -5.484375 L -1.6875 -35.65625 C -1.800781 -36.71875 -2.039062 -37.734375 -2.40625 -38.703125 C -2.78125 -39.671875 -3.226562 -40.332031 -3.75 -40.6875 L 7.1875 -41.921875 L 18.9375 -21.578125 L 25.828125 -44.03125 L 36.765625 -45.265625 C 36.335938 -44.804688 36.054688 -44.0625 35.921875 -43.03125 C 35.785156 -42 35.773438 -40.953125 35.890625 -39.890625 L 39.296875 -9.71875 C 39.421875 -8.6875 39.660156 -7.679688 40.015625 -6.703125 C 40.378906 -5.722656 40.828125 -5.046875 41.359375 -4.671875 L 28.9375 -3.265625 C 29.375 -3.753906 29.660156 -4.519531 29.796875 -5.5625 C 29.929688 -6.601562 29.941406 -7.648438 29.828125 -8.703125 L 27.78125 -26.859375 L 20.96875 -3.578125 L 9.125 -24.890625 L 11.1875 -6.59375 C 11.300781 -5.539062 11.539062 -4.519531 11.90625 -3.53125 C 12.28125 -2.550781 12.734375 -1.875 13.265625 -1.5 Z M 13.265625 -1.5" transform="translate(89.975352, 158.31252)"></path><path fill="#fff" d="M 15.625 0.125 C 12.78125 0.21875 10.257812 -0.335938 8.0625 -1.546875 C 5.863281 -2.765625 4.125 -4.519531 2.84375 -6.8125 C 1.570312 -9.101562 0.882812 -11.785156 0.78125 -14.859375 C 0.675781 -17.960938 1.1875 -20.6875 2.3125 -23.03125 C 3.445312 -25.382812 5.070312 -27.238281 7.1875 -28.59375 C 9.300781 -29.957031 11.78125 -30.6875 14.625 -30.78125 C 17.5 -30.875 20.035156 -30.3125 22.234375 -29.09375 C 24.441406 -27.875 26.179688 -26.128906 27.453125 -23.859375 C 28.722656 -21.585938 29.410156 -18.898438 29.515625 -15.796875 C 29.617188 -12.722656 29.109375 -10 27.984375 -7.625 C 26.859375 -5.257812 25.234375 -3.398438 23.109375 -2.046875 C 20.992188 -0.691406 18.5 0.03125 15.625 0.125 Z M 9.671875 -15.09375 C 9.742188 -12.875 10.289062 -11.101562 11.3125 -9.78125 C 12.332031 -8.457031 13.6875 -7.828125 15.375 -7.890625 C 17.070312 -7.941406 18.390625 -8.660156 19.328125 -10.046875 C 20.265625 -11.429688 20.695312 -13.234375 20.625 -15.453125 C 20.550781 -17.710938 20 -19.503906 18.96875 -20.828125 C 17.9375 -22.148438 16.570312 -22.785156 14.875 -22.734375 C 13.1875 -22.671875 11.878906 -21.945312 10.953125 -20.5625 C 10.023438 -19.175781 9.597656 -17.351562 9.671875 -15.09375 Z M 9.671875 -15.09375" transform="translate(131.10567, 153.844565)"></path><path fill="#fff" d="M -0.359375 -25.59375 C 0.691406 -25.59375 1.820312 -25.722656 3.03125 -25.984375 C 4.25 -26.242188 5.453125 -26.59375 6.640625 -27.03125 C 7.835938 -27.46875 8.960938 -27.914062 10.015625 -28.375 C 11.078125 -28.832031 11.972656 -29.257812 12.703125 -29.65625 L 12.203125 -19.921875 L 16.96875 -28.3125 C 17.539062 -28.601562 18.144531 -28.835938 18.78125 -29.015625 C 19.425781 -29.191406 20.144531 -29.257812 20.9375 -29.21875 C 23.625 -29.082031 25.703125 -28.191406 27.171875 -26.546875 C 28.648438 -24.898438 29.304688 -22.484375 29.140625 -19.296875 L 29.109375 -18.953125 L 33.921875 -27.4375 C 34.492188 -27.71875 35.101562 -27.945312 35.75 -28.125 C 36.394531 -28.300781 37.113281 -28.367188 37.90625 -28.328125 C 40.570312 -28.191406 42.640625 -27.300781 44.109375 -25.65625 C 45.585938 -24.007812 46.242188 -21.59375 46.078125 -18.40625 L 45.265625 -2.9375 C 45.203125 -1.882812 45.269531 -0.84375 45.46875 0.1875 C 45.675781 1.226562 46.007812 1.976562 46.46875 2.4375 L 34.84375 1.828125 C 35.34375 1.421875 35.742188 0.71875 36.046875 -0.28125 C 36.359375 -1.28125 36.546875 -2.300781 36.609375 -3.34375 L 37.296875 -16.734375 C 37.367188 -18.085938 37.070312 -19.148438 36.40625 -19.921875 C 35.738281 -20.691406 34.882812 -21.109375 33.84375 -21.171875 C 32.9375 -21.210938 32.160156 -21.046875 31.515625 -20.671875 C 30.878906 -20.296875 30.363281 -19.800781 29.96875 -19.1875 C 29.570312 -18.570312 29.257812 -17.929688 29.03125 -17.265625 L 28.328125 -3.828125 C 28.265625 -2.773438 28.332031 -1.726562 28.53125 -0.6875 C 28.726562 0.34375 29.054688 1.085938 29.515625 1.546875 L 17.875 0.9375 C 18.375 0.53125 18.773438 -0.171875 19.078125 -1.171875 C 19.390625 -2.171875 19.578125 -3.191406 19.640625 -4.234375 L 20.328125 -17.625 C 20.398438 -18.976562 20.101562 -20.039062 19.4375 -20.8125 C 18.78125 -21.582031 17.929688 -21.992188 16.890625 -22.046875 C 15.566406 -22.117188 14.53125 -21.75 13.78125 -20.9375 C 13.03125 -20.132812 12.472656 -19.25 12.109375 -18.28125 L 11.40625 -4.71875 C 11.34375 -3.664062 11.410156 -2.617188 11.609375 -1.578125 C 11.816406 -0.535156 12.148438 0.207031 12.609375 0.65625 L 0.96875 0.046875 C 1.46875 -0.347656 1.867188 -1.046875 2.171875 -2.046875 C 2.484375 -3.054688 2.671875 -4.082031 2.734375 -5.125 L 3.453125 -19.109375 C 3.472656 -19.421875 3.472656 -19.898438 3.453125 -20.546875 C 3.429688 -21.203125 3.3125 -21.890625 3.09375 -22.609375 C 2.882812 -23.328125 2.507812 -23.957031 1.96875 -24.5 C 1.425781 -25.039062 0.648438 -25.335938 -0.359375 -25.390625 Z M -0.359375 -25.59375" transform="translate(161.222126, 152.465246)"></path><path fill="none" stroke="#ff914d" stroke-width="8.75" d="M 0.667336 30.999959 C 1.047304 30.66861 1.335447 30.099014 1.528755 29.290913 C 1.731605 28.477565 1.83187 27.658487 1.829547 26.83368 L 1.830748 2.998961 C 1.82971 2.159105 1.729792 1.341122 1.53125 0.542002 C 1.332965 -0.260128 1.048162 -0.830147 0.667555 -1.165815 L 10.496196 -1.166235 C 10.121991 -0.831362 9.834105 -0.264775 9.633053 0.527505 C 9.432516 1.313767 9.332766 2.126825 9.333803 2.96668 L 9.332707 24.67016 L 18.030505 24.67018 C 18.585393 24.66906 19.20811 24.619163 19.895391 24.523241 C 20.583443 24.418291 21.278177 24.235088 21.979852 23.970623 C 22.678773 23.702891 23.29717 23.31308 23.8353 22.798181 L 23.835296 30.99879 Z M 0.667336 30.999959" transform="matrix(1.28849, -0.110034, 0.110034, 1.28849, 103.350173, 236.368564)"></path><path fill="none" stroke="#ff914d" stroke-width="8.75" d="M -1.333468 10.901579 C -0.50962 10.856498 0.375492 10.707888 1.318959 10.452619 C 2.262426 10.197351 3.196276 9.875227 4.117491 9.486135 C 5.038818 9.094025 5.905921 8.696885 6.712988 8.288456 C 7.526204 7.877231 8.211075 7.503576 8.764583 7.167377 L 8.762309 26.83312 C 8.765019 27.658424 8.864659 28.478246 9.064359 29.289679 C 9.26417 30.098095 9.55442 30.668039 9.935108 30.999512 L 0.7642 30.998689 C 1.145202 30.668198 1.43508 30.104607 1.636852 29.30803 C 1.83583 28.505304 1.935528 27.689835 1.935726 26.867662 L 1.936041 15.831717 C 1.936033 15.586876 1.913661 15.211231 1.863 14.701539 C 1.821394 14.192182 1.699068 13.658679 1.495799 13.107067 C 1.295884 12.546512 0.975004 12.069138 0.530141 11.674836 C 0.0886325 11.27159 -0.532755 11.073277 -1.333686 11.070844 Z M 5.468461 5.570316 C 4.64327 5.570008 3.898008 5.370134 3.22977 4.967566 C 2.564439 4.568128 2.028231 4.028378 1.627185 3.348538 C 1.232064 2.671941 1.032702 1.933065 1.032005 1.13504 C 1.032202 0.312867 1.232188 -0.435413 1.628942 -1.109911 C 2.028827 -1.787317 2.562652 -2.326766 3.230417 -2.72826 C 3.898182 -3.129753 4.643207 -3.33191 5.468398 -3.331601 C 6.287553 -3.331516 7.035833 -3.131531 7.713127 -2.728627 C 8.393551 -2.328631 8.932777 -1.788769 9.333823 -1.108929 C 9.735205 -0.438146 9.93412 0.312805 9.936942 1.135089 C 9.93462 1.933002 9.73497 2.672226 9.332066 3.34952 C 8.932181 4.026926 8.392319 4.566152 7.715387 4.970328 C 7.035547 5.371375 6.287616 5.570402 5.468461 5.570316 Z M 5.468461 5.570316" transform="matrix(1.292296, -0.0478212, 0.0478212, 1.292296, 136.174565, 233.813013)"></path><path fill="none" stroke="#ff914d" stroke-width="8.75" d="M 9.667634 31.000285 L 0.496844 30.99964 C 0.876057 30.668788 1.166691 30.105718 1.365715 29.30742 C 1.567746 28.506088 1.667013 27.690086 1.669581 26.86543 L 1.669151 10.266789 C 1.668684 8.004301 2.001772 6.045497 2.668413 4.390377 C 3.335042 2.732236 4.235505 1.369138 5.363788 0.307148 C 6.495066 -0.760897 7.784587 -1.551705 9.226322 -2.06223 C 10.677119 -2.572794 12.177328 -2.826808 13.735997 -2.827331 C 14.956356 -2.826429 16.026244 -2.691984 16.948667 -2.427028 C 17.871091 -2.162072 18.467287 -1.895743 18.731201 -1.631034 L 17.12838 5.099752 C 16.884847 4.653717 16.460203 4.238651 15.860491 3.85453 C 15.263773 3.464355 14.507777 3.268173 13.598555 3.268982 C 12.885675 3.268964 12.185538 3.425967 11.498145 3.739992 C 10.807719 4.051009 10.208611 4.527779 9.700835 5.173323 C 9.190013 5.812838 8.834056 6.645024 8.632966 7.669882 L 14.100404 7.671021 L 14.102903 14.002358 L 8.496517 14.001804 L 8.496186 26.833659 C 8.496639 27.658303 8.596746 28.476486 8.796522 29.291228 C 8.996272 30.099929 9.288657 30.669607 9.667634 31.000285 Z M 9.667634 31.000285" transform="matrix(1.293169, 0.00544623, -0.00544623, 1.293169, 150.936484, 233.17125)"></path><path fill="none" stroke="#ff914d" stroke-width="8.75" d="M 12.532281 31.497073 C 10.577202 31.495649 8.872011 31.176305 7.413508 30.53621 C 5.957651 29.8899 4.759678 29.006891 3.81639 27.884351 C 2.873101 26.761811 2.167451 25.467363 1.699438 24.001006 C 1.234625 22.53748 1.000187 20.981173 1.002153 19.331717 C 1.001473 17.688476 1.245252 16.133171 1.733674 14.668817 C 2.222096 13.204463 2.959958 11.909451 3.947444 10.786796 C 4.937945 9.663956 6.173084 8.780356 7.649662 8.133166 C 9.123409 7.489176 10.861849 7.164909 12.865353 7.166396 C 14.550989 7.166148 16.027962 7.514588 17.290426 8.2151 C 18.561934 8.915058 19.54621 9.817196 20.246084 10.918314 C 20.945957 12.019433 21.293996 13.157211 21.296416 14.334295 C 21.294961 15.448064 21.000744 16.525273 20.408103 17.572321 C 19.821308 18.615985 18.856414 19.464891 17.510405 20.119223 C 16.170241 20.770171 14.35624 21.096035 12.068402 21.096815 L 8.170488 21.096245 C 8.436505 22.278384 8.968345 23.20518 9.765637 23.870602 C 10.568775 24.53264 11.590728 24.863528 12.831496 24.863264 C 13.657731 24.864155 14.361895 24.700016 14.946819 24.367648 C 15.540603 24.031711 16.02874 23.650791 16.414061 23.221689 C 16.802029 22.786373 17.076469 22.424581 17.233998 22.13047 C 17.786452 22.998504 18.440125 23.839161 19.195017 24.652441 C 19.955755 25.462336 20.680439 26.177596 21.369254 26.801235 C 20.387229 28.359344 19.100086 29.530598 17.511026 30.317828 C 15.92781 31.101674 14.266342 31.496888 12.532281 31.497073 Z M 8.096726 20.731549 C 9.165154 20.536043 10.200052 20.188246 11.195392 19.688528 C 12.199593 19.185242 13.02665 18.556612 13.67958 17.802452 C 14.335525 17.048108 14.664499 16.192719 14.663672 15.239484 C 14.663688 14.794616 14.509938 14.359157 14.199592 13.936307 C 13.889246 13.513456 13.377009 13.302695 12.662698 13.301008 C 12.021117 13.300924 11.339101 13.530286 10.610438 13.98645 C 9.890819 14.442059 9.272472 15.118445 8.764626 16.018069 C 8.25395 16.920892 7.997573 18.023022 7.998881 19.330305 C 7.998801 19.823598 8.030412 20.29074 8.096726 20.731549 Z M 8.096726 20.731549" transform="matrix(1.290766, 0.0789803, -0.0789803, 1.290766, 177.498905, 233.276718)"></path><path fill="#fff" d="M 0.859375 -0.078125 C 1.316406 -0.546875 1.625 -1.3125 1.78125 -2.375 C 1.945312 -3.445312 1.988281 -4.515625 1.90625 -5.578125 L -0.71875 -36.296875 C -0.8125 -37.367188 -1.03125 -38.410156 -1.375 -39.421875 C -1.71875 -40.429688 -2.148438 -41.128906 -2.671875 -41.515625 L 10 -42.59375 C 9.539062 -42.125 9.226562 -41.367188 9.0625 -40.328125 C 8.894531 -39.296875 8.859375 -38.238281 8.953125 -37.15625 L 11.328125 -9.1875 L 22.546875 -10.140625 C 23.253906 -10.203125 24.046875 -10.332031 24.921875 -10.53125 C 25.804688 -10.738281 26.679688 -11.050781 27.546875 -11.46875 C 28.421875 -11.894531 29.175781 -12.472656 29.8125 -13.203125 L 30.71875 -2.625 Z M 0.859375 -0.078125" transform="translate(106.761242, 276.311763)"></path><path fill="#fff" d="M -2.6875 -25.921875 C -1.625 -26.015625 -0.488281 -26.25 0.71875 -26.625 C 1.925781 -27 3.113281 -27.457031 4.28125 -28 C 5.457031 -28.550781 6.5625 -29.109375 7.59375 -29.671875 C 8.632812 -30.242188 9.503906 -30.765625 10.203125 -31.234375 L 11.140625 -5.8125 C 11.179688 -4.75 11.34375 -3.695312 11.625 -2.65625 C 11.914062 -1.613281 12.316406 -0.882812 12.828125 -0.46875 L 0.984375 -0.03125 C 1.453125 -0.476562 1.796875 -1.222656 2.015625 -2.265625 C 2.242188 -3.316406 2.335938 -4.375 2.296875 -5.4375 L 1.78125 -19.6875 C 1.757812 -20.007812 1.707031 -20.5 1.625 -21.15625 C 1.550781 -21.820312 1.367188 -22.507812 1.078125 -23.21875 C 0.796875 -23.925781 0.359375 -24.523438 -0.234375 -25.015625 C -0.828125 -25.515625 -1.640625 -25.742188 -2.671875 -25.703125 Z M 5.84375 -33.140625 C 4.78125 -33.097656 3.8125 -33.316406 2.9375 -33.796875 C 2.0625 -34.273438 1.347656 -34.941406 0.796875 -35.796875 C 0.242188 -36.660156 -0.046875 -37.609375 -0.078125 -38.640625 C -0.117188 -39.703125 0.0976562 -40.679688 0.578125 -41.578125 C 1.066406 -42.472656 1.726562 -43.195312 2.5625 -43.75 C 3.40625 -44.300781 4.359375 -44.597656 5.421875 -44.640625 C 6.492188 -44.679688 7.476562 -44.457031 8.375 -43.96875 C 9.269531 -43.476562 9.988281 -42.800781 10.53125 -41.9375 C 11.070312 -41.082031 11.363281 -40.125 11.40625 -39.0625 C 11.4375 -38.03125 11.210938 -37.066406 10.734375 -36.171875 C 10.265625 -35.273438 9.597656 -34.554688 8.734375 -34.015625 C 7.878906 -33.472656 6.914062 -33.179688 5.84375 -33.140625 Z M 5.84375 -33.140625" transform="translate(137.657021, 273.874177)"></path><path fill="#fff" d="M 12.5 0.046875 L 0.640625 0 C 1.128906 -0.425781 1.503906 -1.15625 1.765625 -2.1875 C 2.035156 -3.21875 2.171875 -4.265625 2.171875 -5.328125 L 2.265625 -26.796875 C 2.273438 -29.734375 2.710938 -32.269531 3.578125 -34.40625 C 4.453125 -36.550781 5.625 -38.304688 7.09375 -39.671875 C 8.570312 -41.046875 10.25 -42.054688 12.125 -42.703125 C 14 -43.359375 15.941406 -43.679688 17.953125 -43.671875 C 19.523438 -43.671875 20.90625 -43.492188 22.09375 -43.140625 C 23.289062 -42.796875 24.0625 -42.445312 24.40625 -42.09375 L 22.296875 -33.40625 C 21.984375 -33.976562 21.441406 -34.515625 20.671875 -35.015625 C 19.898438 -35.523438 18.925781 -35.78125 17.75 -35.78125 C 16.820312 -35.789062 15.910156 -35.59375 15.015625 -35.1875 C 14.117188 -34.789062 13.335938 -34.175781 12.671875 -33.34375 C 12.015625 -32.519531 11.554688 -31.445312 11.296875 -30.125 L 18.359375 -30.09375 L 18.328125 -21.90625 L 11.09375 -21.9375 L 11.015625 -5.34375 C 11.015625 -4.28125 11.140625 -3.222656 11.390625 -2.171875 C 11.640625 -1.117188 12.007812 -0.378906 12.5 0.046875 Z M 12.5 0.046875" transform="translate(150.767651, 273.259479)"></path><path fill="#fff" d="M 16.125 1.625 C 13.613281 1.476562 11.441406 0.929688 9.609375 -0.015625 C 7.773438 -0.972656 6.296875 -2.207031 5.171875 -3.71875 C 4.046875 -5.238281 3.238281 -6.960938 2.75 -8.890625 C 2.257812 -10.828125 2.082031 -12.859375 2.21875 -14.984375 C 2.34375 -17.109375 2.78125 -19.097656 3.53125 -20.953125 C 4.28125 -22.804688 5.335938 -24.421875 6.703125 -25.796875 C 8.066406 -27.171875 9.722656 -28.210938 11.671875 -28.921875 C 13.628906 -29.628906 15.898438 -29.90625 18.484375 -29.75 C 20.671875 -29.613281 22.550781 -29.046875 24.125 -28.046875 C 25.707031 -27.046875 26.90625 -25.804688 27.71875 -24.328125 C 28.539062 -22.847656 28.90625 -21.347656 28.8125 -19.828125 C 28.726562 -18.398438 28.265625 -17.03125 27.421875 -15.71875 C 26.578125 -14.414062 25.257812 -13.394531 23.46875 -12.65625 C 21.6875 -11.914062 19.316406 -11.632812 16.359375 -11.8125 L 11.328125 -12.125 C 11.578125 -10.59375 12.191406 -9.363281 13.171875 -8.4375 C 14.148438 -7.519531 15.441406 -7.007812 17.046875 -6.90625 C 18.109375 -6.84375 19.035156 -7 19.828125 -7.375 C 20.617188 -7.757812 21.28125 -8.21875 21.8125 -8.75 C 22.34375 -9.28125 22.71875 -9.726562 22.9375 -10.09375 C 23.582031 -8.925781 24.363281 -7.785156 25.28125 -6.671875 C 26.195312 -5.566406 27.078125 -4.585938 27.921875 -3.734375 C 26.523438 -1.804688 24.769531 -0.394531 22.65625 0.5 C 20.550781 1.394531 18.375 1.769531 16.125 1.625 Z M 11.265625 -12.609375 C 12.648438 -12.785156 14.007812 -13.15625 15.34375 -13.71875 C 16.675781 -14.289062 17.796875 -15.035156 18.703125 -15.953125 C 19.609375 -16.878906 20.101562 -17.960938 20.1875 -19.203125 C 20.21875 -19.765625 20.046875 -20.332031 19.671875 -20.90625 C 19.304688 -21.476562 18.660156 -21.789062 17.734375 -21.84375 C 16.898438 -21.894531 16.003906 -21.65625 15.046875 -21.125 C 14.085938 -20.59375 13.238281 -19.765625 12.5 -18.640625 C 11.769531 -17.523438 11.351562 -16.125 11.25 -14.4375 C 11.207031 -13.800781 11.210938 -13.191406 11.265625 -12.609375 Z M 11.265625 -12.609375" transform="translate(175.050515, 273.290467)"></path><path fill="none" stroke="#ff914d" stroke-width="8.75" d="M 17.096826 31.495221 C 14.67604 31.495668 12.488426 31.06619 10.528593 30.202719 C 8.575799 29.334407 6.90096 28.142762 5.502205 26.621293 C 4.101029 25.096305 3.025888 23.336754 2.277331 21.33967 C 1.535265 19.340715 1.164345 17.195418 1.16457 14.903779 C 1.164245 12.615109 1.536854 10.469192 2.278875 8.468449 C 3.027386 6.465834 4.102857 4.704981 5.501768 3.188311 C 6.899358 1.66218 8.575514 0.473301 10.530236 -0.378327 C 12.489028 -1.235345 14.675572 -1.663142 17.096358 -1.663589 C 19.476882 -1.662272 21.666688 -1.32762 23.663354 -0.663153 C 25.665411 0.00538463 27.309105 1.049955 28.594435 2.470559 C 28.306945 3.160762 28.034527 3.869114 27.779052 4.602106 C 27.526548 5.335648 27.296919 6.011985 27.097978 6.638706 C 26.896616 7.261908 26.732095 7.76905 26.607935 8.157712 C 26.490265 8.544503 26.43022 8.736138 26.43022 8.736138 C 26.43022 8.736138 26.280923 8.530332 25.982328 8.118718 C 25.683734 7.707105 25.205385 7.237645 24.548602 6.7198 C 23.892369 6.198984 23.051442 5.729998 22.02769 5.319333 C 21.007458 4.906247 19.776914 4.699992 18.333089 4.700017 C 16.619089 4.699188 15.027892 5.080507 13.563567 5.838583 C 12.099791 6.59369 10.916346 7.72631 10.015651 9.239963 C 9.116055 10.747676 8.66587 12.648838 8.666194 14.937507 C 8.667397 17.204835 9.117497 19.088311 10.017044 20.584965 C 10.916591 22.081619 12.099369 23.209837 13.565377 23.969619 C 15.029514 24.722911 16.618582 25.099972 18.332581 25.100801 C 19.776407 25.100776 21.006362 24.89528 22.025966 24.481893 C 23.051511 24.069605 23.893781 23.601892 24.549256 23.081173 C 25.207702 22.561004 25.683873 22.096185 25.98184 21.681326 C 26.279257 21.269436 26.430935 21.064041 26.430935 21.064041 C 26.430935 21.064041 26.490027 21.259296 26.60821 21.649805 C 26.732333 22.041414 26.896619 22.547975 27.097548 23.171909 C 27.296606 23.789352 27.524931 24.464436 27.779553 25.196611 C 28.037145 25.929335 28.308046 26.639946 28.595226 27.328995 C 27.308182 28.75578 25.663255 29.80913 23.663964 30.486622 C 21.665223 31.161145 19.477351 31.496538 17.096826 31.495221 Z M 17.096826 31.495221" transform="matrix(1.271583, -0.235355, 0.235355, 1.271583, 37.566162, 182.15473)"></path><path fill="none" stroke="#ff914d" stroke-width="8.75" d="M -1.333464 10.900741 C -0.51025 10.857447 0.373991 10.708785 1.31926 10.454753 C 2.261882 10.19737 3.193896 9.874872 4.118656 9.484613 C 5.040416 9.094001 5.905175 8.6967 6.713285 8.28971 C 7.528099 7.877423 8.210925 7.50135 8.76441 7.164843 L 8.763805 13.700708 C 8.919771 12.96779 9.171907 12.218785 9.510862 11.455639 C 9.859873 10.684548 10.292548 9.978021 10.814536 9.339762 C 11.334581 8.692151 11.9496 8.168216 12.662596 7.768312 C 13.378943 7.365759 14.165759 7.166125 15.029396 7.167114 C 15.695565 7.166218 16.346241 7.297325 16.981779 7.557434 C 17.61802 7.811544 18.045328 8.083713 18.267055 8.371293 C 17.952879 9.389783 17.653549 10.48909 17.363418 11.665512 C 17.076286 12.842286 16.844381 13.989045 16.665406 15.099436 C 16.397747 14.633106 15.855167 14.228795 15.028315 13.888447 C 14.211519 13.540155 13.36795 13.368162 12.498313 13.366469 C 10.00746 13.366122 8.765039 14.312171 8.762753 16.197561 L 8.764554 26.833495 C 8.765142 27.657779 8.863493 28.47833 9.06631 29.28985 C 9.266128 30.101019 9.555169 30.670224 9.936083 31.000817 L 0.766249 31.001317 C 1.145915 30.668742 1.434279 30.103431 1.633991 29.308736 C 1.834759 28.505041 1.936526 27.689728 1.935937 26.865444 L 1.935258 15.83122 C 1.936424 15.588046 1.913729 15.211293 1.864172 14.700607 C 1.820615 14.190625 1.697465 13.659137 1.497721 13.106495 C 1.295681 12.5475 0.974725 12.068833 0.528499 11.672788 C 0.0889783 11.271448 -0.532248 11.070804 -1.33518 11.070857 Z M -1.333464 10.900741" transform="matrix(1.284366, -0.15073, 0.15073, 1.284366, 75.659428, 175.357064)"></path><path fill="none" stroke="#ff914d" stroke-width="8.75" d="M 0.333422 10.966859 C 1.374385 9.723607 2.627775 8.780229 4.093767 8.13371 C 5.562774 7.487368 7.242797 7.165024 9.130818 7.166503 C 10.731486 7.166307 12.256308 7.376508 13.711138 7.800475 C 15.168984 8.224619 16.466374 8.857238 17.59994 9.704187 C 18.733858 10.545105 19.632285 11.584059 20.295221 12.821049 C 20.961525 14.052184 21.294961 15.49079 21.295704 17.133851 L 21.294461 23.829906 C 21.294144 24.456231 21.348459 25.079699 21.45723 25.703326 C 21.572384 26.321275 21.811491 26.837543 22.174728 27.249114 C 22.543995 27.661038 23.127997 27.867661 23.932943 27.86632 L 23.932467 28.029686 C 23.286391 28.367106 22.608221 28.735933 21.897956 29.136167 C 21.187868 29.533385 20.503138 29.910906 19.846781 30.268905 C 19.190778 30.620873 18.613865 30.913924 18.113027 31.147882 C 17.615382 31.379001 17.263503 31.497611 17.06395 31.495019 C 16.510174 31.495919 16.039685 31.26265 15.646275 30.797876 C 15.256058 30.330262 14.960344 29.747142 14.762325 29.045676 C 14.56413 28.347226 14.467933 27.663818 14.467703 26.995099 L 14.468438 23.464017 C 14.045088 24.132171 13.569433 24.866861 13.044313 25.671278 C 12.522738 26.466825 12.02333 27.245513 11.546264 28.004327 C 11.069375 28.760125 10.666409 29.390137 10.333999 29.900215 C 10.176224 30.166338 9.763224 30.502259 9.098368 30.902122 C 8.430673 31.298794 7.641405 31.49773 6.730741 31.495915 C 5.35091 31.496922 4.229425 31.219532 3.360078 30.666409 C 2.496762 30.113639 1.871247 29.375071 1.480341 28.453545 C 1.095643 27.529355 0.904607 26.50151 0.904217 25.369833 C 0.903458 24.192746 1.173229 23.098048 1.716371 22.08893 C 2.259689 21.076796 2.998697 20.185035 3.930028 19.419502 C 4.864551 18.651129 5.919394 18.050161 7.094205 17.622628 C 8.278415 17.189593 9.513607 16.971347 10.799604 16.970904 C 12.109725 16.971872 13.276248 17.203483 14.295806 17.671589 C 14.00942 16.359793 13.416088 15.329603 12.515457 14.58705 C 11.614826 13.844497 10.50803 13.471141 9.194717 13.473012 C 7.996522 13.472537 6.92452 13.694275 5.981726 14.138402 C 5.036094 14.579337 4.254092 15.274931 3.629338 16.230864 C 3.097197 15.189123 2.575743 14.275092 2.067991 13.488945 C 1.557577 12.696592 0.980451 11.85495 0.333422 10.966859 Z M 7.998845 22.798234 C 7.997787 23.333742 8.174098 23.83726 8.528129 24.302758 C 8.885176 24.768432 9.509985 25.001647 10.39954 25.002228 C 11.174154 25.002139 11.923674 24.758517 12.645083 24.271186 C 13.372877 23.778177 13.980879 23.108717 14.468737 22.268837 L 14.467004 19.297386 C 14.468009 19.124973 14.463512 18.943161 14.450321 18.754789 C 14.440322 18.563578 14.423234 18.390108 14.396042 18.234201 C 14.199822 18.122875 13.986586 18.043837 13.75083 17.987689 C 13.518266 17.928702 13.265845 17.898812 12.996584 17.898195 C 12.061619 17.897984 11.219871 18.166471 10.465309 18.703302 C 9.710922 19.237118 9.110538 19.879791 8.666996 20.634513 C 8.220614 21.386044 7.999849 22.108407 7.998845 22.798234 Z M 7.998845 22.798234" transform="matrix(1.290975, -0.0754938, 0.0754938, 1.290975, 102.335381, 172.207078)"></path><path fill="none" stroke="#ff914d" stroke-width="8.75" d="M 9.666909 30.999306 L 0.496202 30.999808 C 0.876896 30.667641 1.167033 30.105879 1.366615 29.308481 C 1.56922 28.505042 1.669125 27.689493 1.669352 26.864854 L 1.667869 10.266357 C 1.668491 8.003887 2.0013 6.046595 2.66932 4.39146 C 3.33734 2.730283 4.234849 1.368214 5.361845 0.305254 C 6.494883 -0.760726 7.78492 -1.551783 9.228933 -2.061877 C 10.675966 -2.571971 12.177301 -2.825293 13.735959 -2.824865 C 14.956304 -2.827551 16.0286 -2.694347 16.949826 -2.428277 C 17.871053 -2.162206 18.466049 -1.896225 18.731793 -1.630334 L 17.128998 5.099244 C 16.884447 4.65514 16.46167 4.238174 15.860665 3.854386 C 15.262683 3.464557 14.507573 3.268007 13.598356 3.267757 C 12.885482 3.267561 12.187667 3.424444 11.498871 3.741423 C 10.810077 4.049341 10.208836 4.526439 9.698168 5.172719 C 9.190522 5.812958 8.833856 6.646561 8.634211 7.670508 L 14.101596 7.67201 L 14.102878 14.000281 L 8.496543 14.001762 L 8.496039 26.833502 C 8.495813 27.658141 8.59527 28.476765 8.797429 29.292398 C 8.996571 30.098967 9.286397 30.66995 9.666909 30.999306 Z M 9.666909 30.999306" transform="matrix(1.29318, -0.000355185, 0.000355185, 1.29318, 133.448873, 170.497782)"></path><path fill="none" stroke="#ff914d" stroke-width="8.75" d="M 0.00110933 14.001102 L 0.000916585 7.671515 C 0.623152 7.405584 1.32764 7.026811 2.114526 6.538213 C 2.9073 6.046306 3.714535 5.478097 4.533505 4.839766 C 5.358073 4.192091 6.124003 3.52003 6.834168 2.820421 C 7.54735 2.120665 8.134249 1.43608 8.601046 0.769391 L 8.764408 0.770575 L 8.764982 7.671712 L 13.800173 7.670514 L 13.800366 14.000101 L 8.765175 14.001299 L 8.764611 21.567809 C 8.764897 23.076858 8.986117 24.088347 9.431431 24.605147 C 9.876309 25.112896 10.51168 25.369512 11.334236 25.369108 C 11.845298 25.368624 12.297098 25.26818 12.692653 25.067629 C 13.094243 24.866787 13.452822 24.589394 13.768536 24.238466 C 13.877247 25.237242 14.053895 26.202497 14.298481 27.134229 C 14.540195 28.069123 14.753256 28.911652 14.931775 29.665124 C 14.379831 30.196813 13.599665 30.636699 12.597313 30.984493 C 11.597686 31.326106 10.565617 31.496908 9.495073 31.49719 C 7.012175 31.496114 5.13511 30.764176 3.863734 29.298359 C 2.601554 27.835121 1.968994 25.757816 1.969069 23.066298 L 1.969929 14.002808 Z M 0.00110933 14.001102" transform="matrix(1.291675, 0.0623706, -0.0623706, 1.291675, 159.789793, 170.575213)"></path><path fill="none" stroke="#ff914d" stroke-width="8.75" d="M 12.530772 31.495185 C 10.578896 31.497493 8.873852 31.177417 7.412637 30.535257 C 5.960135 29.889185 4.759937 29.005182 3.815049 27.882947 C 2.873167 26.760409 2.165903 25.465478 1.699873 24.003558 C 1.23354 22.538633 1.000681 20.980364 1.001596 19.331756 C 0.99981 17.686457 1.244254 16.134757 1.734022 14.66764 C 2.221087 13.203831 2.958946 11.90906 3.947902 10.786333 C 4.939863 9.663303 6.174555 8.77995 7.648668 8.133572 C 9.126089 7.489896 10.86343 7.166136 12.863999 7.164995 C 14.55198 7.164981 16.026512 7.517384 17.293001 8.215589 C 18.559793 8.916799 19.545998 9.816285 20.24591 10.917657 C 20.945821 12.019029 21.294398 13.158826 21.294343 14.33374 C 21.294244 15.44794 20.999265 16.528088 20.409406 17.574184 C 19.821947 18.613966 18.85714 19.464062 17.511678 20.121769 C 16.171621 20.77286 14.355533 21.09848 12.066419 21.098326 L 8.171076 21.096024 C 8.436128 22.280666 8.966392 23.204826 9.765177 23.871207 C 10.566664 24.53428 11.58973 24.865368 12.831369 24.864774 C 13.657025 24.863578 14.362936 24.698358 14.949104 24.369116 C 15.540374 24.030252 16.027319 23.650286 16.412034 23.219898 C 16.802458 22.7859 17.078718 22.424119 17.234199 22.129151 C 17.789371 22.999192 18.441603 23.838204 19.194508 24.651895 C 19.956125 25.461674 20.678001 26.178305 21.369152 26.800881 C 20.387421 28.35702 19.100039 29.531058 17.512412 30.31638 C 15.928094 31.104405 14.267446 31.496338 12.530772 31.495185 Z M 8.097775 20.729987 C 9.164945 20.534451 10.198644 20.187453 11.195865 19.689297 C 12.201496 19.184222 13.0276 18.554541 13.677484 17.802957 C 14.336082 17.04746 14.662782 16.191812 14.663898 15.238415 C 14.664478 14.792073 14.508473 14.358468 14.198886 13.937297 C 13.888997 13.513121 13.378783 13.300387 12.662534 13.302707 C 12.021725 13.300463 11.337501 13.530289 10.612262 13.985869 C 9.890029 14.441146 9.275258 15.119367 8.764642 16.017827 C 8.254329 16.919293 7.99814 18.022857 7.999383 19.331222 C 7.997636 19.826256 8.032235 20.290305 8.097775 20.729987 Z M 8.097775 20.729987" transform="matrix(1.286669, 0.129604, -0.129604, 1.286669, 181.724553, 171.566926)"></path><path fill="none" stroke="#ff914d" stroke-width="8.75" d="M 8.495 31.495562 C 7.187964 31.495887 6.062572 31.129667 5.118823 30.396902 C 4.175075 29.664137 3.395266 28.699361 2.782376 27.502085 C 2.168996 26.301829 1.718267 24.992217 1.432678 23.56978 C 1.14362 22.144852 1.00004 20.72971 0.999936 19.330804 C 1.001923 17.8887 1.176215 16.451978 1.528774 15.019657 C 1.887294 13.586359 2.45558 12.274734 3.231141 11.088255 C 4.012663 9.900796 5.028999 8.950283 6.28064 8.239695 C 7.540732 7.524658 9.067628 7.166819 10.864308 7.165688 C 11.687662 7.16519 12.407937 7.282633 13.027623 7.514546 C 13.65078 7.748951 14.206226 8.055696 14.696941 8.43429 L 14.696247 5.838592 C 14.695354 5.590789 14.672928 5.211834 14.631948 4.701237 C 14.587988 4.191129 14.464126 3.660468 14.265834 3.105294 C 14.064071 2.54763 13.740455 2.068133 13.295963 1.672766 C 12.850493 1.271437 12.229739 1.07031 11.43419 1.072364 L 11.43361 0.901038 C 12.253093 0.85832 13.134414 0.707494 14.078063 0.45154 C 15.028163 0.197588 15.961535 -0.120961 16.88365 -0.508067 C 17.808256 -0.898644 18.672802 -1.300787 19.480759 -1.712006 C 20.294677 -2.124203 20.977398 -2.496492 21.532392 -2.826382 L 21.530744 26.900224 C 21.531242 27.723578 21.630105 28.530781 21.830802 29.324325 C 22.033501 30.111419 22.321171 30.670284 22.693813 31.000921 L 14.695174 31.001004 L 14.695808 23.528757 L 12.099913 30.20268 C 11.699696 30.59899 11.190925 30.912108 10.577561 31.147504 C 9.969668 31.378941 9.275645 31.495954 8.495 31.495562 Z M 7.763083 19.93458 C 7.76312 23.421166 8.808713 25.165738 10.896394 25.165806 C 11.854327 25.164639 12.633634 24.895874 13.229867 24.351058 C 13.832061 23.805264 14.321787 23.15243 14.697042 22.399008 L 14.697125 13.301408 C 14.163169 13.14419 13.574893 13.066296 12.928827 13.065235 C 11.796098 13.064491 10.8468 13.3979 10.080932 14.065462 C 9.318046 14.732535 8.739433 15.589751 8.348076 16.63662 C 7.959211 17.68002 7.762893 18.777516 7.763083 19.93458 Z M 7.763083 19.93458" transform="matrix(1.276094, 0.209522, -0.209522, 1.276094, 211.680459, 174.606946)"></path><path fill="#fff" d="M 21.84375 -3.40625 C 18.769531 -2.832031 15.882812 -2.863281 13.1875 -3.5 C 10.5 -4.132812 8.085938 -5.253906 5.953125 -6.859375 C 3.816406 -8.472656 2.039062 -10.460938 0.625 -12.828125 C -0.789062 -15.191406 -1.769531 -17.835938 -2.3125 -20.765625 C -2.84375 -23.671875 -2.875 -26.476562 -2.40625 -29.1875 C -1.9375 -31.90625 -0.988281 -34.394531 0.4375 -36.65625 C 1.863281 -38.914062 3.71875 -40.820312 6 -42.375 C 8.289062 -43.9375 10.972656 -45.003906 14.046875 -45.578125 C 17.078125 -46.128906 19.941406 -46.21875 22.640625 -45.84375 C 25.335938 -45.46875 27.671875 -44.53125 29.640625 -43.03125 C 29.441406 -42.070312 29.265625 -41.097656 29.109375 -40.109375 C 28.960938 -39.117188 28.832031 -38.207031 28.71875 -37.375 C 28.613281 -36.539062 28.53125 -35.859375 28.46875 -35.328125 C 28.40625 -34.796875 28.375 -34.53125 28.375 -34.53125 C 28.375 -34.53125 28.132812 -34.757812 27.65625 -35.21875 C 27.175781 -35.675781 26.457031 -36.15625 25.5 -36.65625 C 24.539062 -37.164062 23.363281 -37.5625 21.96875 -37.84375 C 20.582031 -38.132812 18.96875 -38.109375 17.125 -37.765625 C 14.945312 -37.359375 13.015625 -36.5 11.328125 -35.1875 C 9.640625 -33.882812 8.398438 -32.164062 7.609375 -30.03125 C 6.816406 -27.894531 6.691406 -25.375 7.234375 -22.46875 C 7.765625 -19.570312 8.78125 -17.28125 10.28125 -15.59375 C 11.78125 -13.90625 13.550781 -12.75 15.59375 -12.125 C 17.632812 -11.507812 19.742188 -11.40625 21.921875 -11.8125 C 23.765625 -12.15625 25.285156 -12.707031 26.484375 -13.46875 C 27.691406 -14.226562 28.648438 -15.019531 29.359375 -15.84375 C 30.066406 -16.664062 30.5625 -17.367188 30.84375 -17.953125 C 31.125 -18.546875 31.265625 -18.84375 31.265625 -18.84375 C 31.265625 -18.84375 31.390625 -18.613281 31.640625 -18.15625 C 31.890625 -17.695312 32.210938 -17.09375 32.609375 -16.34375 C 33.015625 -15.59375 33.460938 -14.78125 33.953125 -13.90625 C 34.453125 -13.039062 34.96875 -12.203125 35.5 -11.390625 C 34.195312 -9.285156 32.351562 -7.566406 29.96875 -6.234375 C 27.582031 -4.898438 24.875 -3.957031 21.84375 -3.40625 Z M 21.84375 -3.40625" transform="translate(44.862167, 221.573797)"></path><path fill="#fff" d="M -4.734375 -25.625 C -3.691406 -25.800781 -2.582031 -26.125 -1.40625 -26.59375 C -0.238281 -27.0625 0.90625 -27.613281 2.03125 -28.25 C 3.164062 -28.894531 4.222656 -29.539062 5.203125 -30.1875 C 6.191406 -30.84375 7.015625 -31.429688 7.671875 -31.953125 L 8.65625 -23.546875 C 8.738281 -24.515625 8.941406 -25.515625 9.265625 -26.546875 C 9.585938 -27.578125 10.035156 -28.546875 10.609375 -29.453125 C 11.191406 -30.359375 11.910156 -31.125 12.765625 -31.75 C 13.617188 -32.382812 14.601562 -32.765625 15.71875 -32.890625 C 16.570312 -32.992188 17.425781 -32.925781 18.28125 -32.6875 C 19.132812 -32.445312 19.726562 -32.15625 20.0625 -31.8125 C 19.8125 -30.457031 19.585938 -29 19.390625 -27.4375 C 19.203125 -25.882812 19.082031 -24.382812 19.03125 -22.9375 C 18.601562 -23.5 17.832031 -23.9375 16.71875 -24.25 C 15.613281 -24.570312 14.507812 -24.671875 13.40625 -24.546875 C 10.207031 -24.171875 8.75 -22.769531 9.03125 -20.34375 L 10.640625 -6.6875 C 10.765625 -5.625 11.015625 -4.582031 11.390625 -3.5625 C 11.765625 -2.550781 12.21875 -1.863281 12.75 -1.5 L 0.984375 -0.109375 C 1.410156 -0.597656 1.691406 -1.367188 1.828125 -2.421875 C 1.972656 -3.484375 1.984375 -4.546875 1.859375 -5.609375 L 0.203125 -19.765625 C 0.160156 -20.085938 0.0703125 -20.570312 -0.0625 -21.21875 C -0.195312 -21.863281 -0.4375 -22.53125 -0.78125 -23.21875 C -1.125 -23.90625 -1.609375 -24.472656 -2.234375 -24.921875 C -2.859375 -25.367188 -3.679688 -25.53125 -4.703125 -25.40625 Z M -4.734375 -25.625" transform="translate(80.332063, 215.172399)"></path><path fill="#fff" d="M -1.078125 -25.890625 C 0.171875 -27.578125 1.71875 -28.890625 3.5625 -29.828125 C 5.40625 -30.773438 7.550781 -31.320312 10 -31.46875 C 12.0625 -31.59375 14.046875 -31.4375 15.953125 -31 C 17.867188 -30.5625 19.585938 -29.835938 21.109375 -28.828125 C 22.628906 -27.816406 23.867188 -26.539062 24.828125 -25 C 25.785156 -23.46875 26.328125 -21.640625 26.453125 -19.515625 L 26.953125 -10.859375 C 27.003906 -10.054688 27.125 -9.253906 27.3125 -8.453125 C 27.507812 -7.660156 27.859375 -7.015625 28.359375 -6.515625 C 28.867188 -6.015625 29.640625 -5.796875 30.671875 -5.859375 L 30.6875 -5.65625 C 29.875 -5.164062 29.019531 -4.632812 28.125 -4.0625 C 27.238281 -3.5 26.382812 -2.960938 25.5625 -2.453125 C 24.75 -1.941406 24.023438 -1.515625 23.390625 -1.171875 C 22.765625 -0.835938 22.328125 -0.660156 22.078125 -0.640625 C 21.359375 -0.597656 20.726562 -0.863281 20.1875 -1.4375 C 19.65625 -2.007812 19.234375 -2.738281 18.921875 -3.625 C 18.609375 -4.519531 18.425781 -5.394531 18.375 -6.25 L 18.109375 -10.828125 C 17.609375 -9.929688 17.050781 -8.941406 16.4375 -7.859375 C 15.820312 -6.785156 15.234375 -5.742188 14.671875 -4.734375 C 14.117188 -3.734375 13.648438 -2.890625 13.265625 -2.203125 C 13.085938 -1.847656 12.578125 -1.382812 11.734375 -0.8125 C 10.898438 -0.25 9.894531 0.0625 8.71875 0.125 C 6.9375 0.226562 5.46875 -0.0390625 4.3125 -0.6875 C 3.15625 -1.34375 2.289062 -2.25 1.71875 -3.40625 C 1.144531 -4.5625 0.816406 -5.867188 0.734375 -7.328125 C 0.640625 -8.847656 0.910156 -10.285156 1.546875 -11.640625 C 2.179688 -12.992188 3.066406 -14.195312 4.203125 -15.25 C 5.335938 -16.3125 6.648438 -17.164062 8.140625 -17.8125 C 9.640625 -18.46875 11.21875 -18.84375 12.875 -18.9375 C 14.570312 -19.039062 16.101562 -18.828125 17.46875 -18.296875 C 16.988281 -19.960938 16.132812 -21.242188 14.90625 -22.140625 C 13.6875 -23.035156 12.234375 -23.429688 10.546875 -23.328125 C 8.992188 -23.242188 7.625 -22.878906 6.4375 -22.234375 C 5.257812 -21.585938 4.304688 -20.625 3.578125 -19.34375 C 2.816406 -20.65625 2.078125 -21.796875 1.359375 -22.765625 C 0.640625 -23.742188 -0.171875 -24.785156 -1.078125 -25.890625 Z M 9.703125 -11.203125 C 9.742188 -10.503906 10.007812 -9.867188 10.5 -9.296875 C 11 -8.722656 11.828125 -8.46875 12.984375 -8.53125 C 13.972656 -8.59375 14.914062 -8.960938 15.8125 -9.640625 C 16.71875 -10.328125 17.453125 -11.238281 18.015625 -12.375 L 17.796875 -16.1875 C 17.773438 -16.414062 17.75 -16.648438 17.71875 -16.890625 C 17.695312 -17.140625 17.664062 -17.367188 17.625 -17.578125 C 17.363281 -17.691406 17.078125 -17.773438 16.765625 -17.828125 C 16.460938 -17.890625 16.140625 -17.910156 15.796875 -17.890625 C 14.585938 -17.816406 13.515625 -17.40625 12.578125 -16.65625 C 11.648438 -15.914062 10.925781 -15.039062 10.40625 -14.03125 C 9.882812 -13.03125 9.648438 -12.085938 9.703125 -11.203125 Z M 9.703125 -11.203125" transform="translate(104.67569, 212.227291)"></path><path fill="#fff" d="M 12.5 0 L 0.640625 0 C 1.128906 -0.425781 1.503906 -1.15625 1.765625 -2.1875 C 2.023438 -3.226562 2.15625 -4.28125 2.15625 -5.34375 L 2.15625 -26.8125 C 2.144531 -29.75 2.566406 -32.285156 3.421875 -34.421875 C 4.285156 -36.566406 5.453125 -38.328125 6.921875 -39.703125 C 8.390625 -41.078125 10.054688 -42.09375 11.921875 -42.75 C 13.796875 -43.414062 15.738281 -43.75 17.75 -43.75 C 19.320312 -43.75 20.703125 -43.578125 21.890625 -43.234375 C 23.085938 -42.890625 23.863281 -42.546875 24.21875 -42.203125 L 22.140625 -33.5 C 21.828125 -34.070312 21.28125 -34.609375 20.5 -35.109375 C 19.726562 -35.609375 18.753906 -35.859375 17.578125 -35.859375 C 16.648438 -35.859375 15.738281 -35.65625 14.84375 -35.25 C 13.957031 -34.851562 13.179688 -34.238281 12.515625 -33.40625 C 11.859375 -32.570312 11.40625 -31.492188 11.15625 -30.171875 L 18.21875 -30.171875 L 18.234375 -21.984375 L 11 -21.984375 L 11 -5.390625 C 11 -4.328125 11.125 -3.269531 11.375 -2.21875 C 11.632812 -1.164062 12.007812 -0.425781 12.5 0 Z M 12.5 0" transform="translate(133.459884, 210.586362)"></path><path fill="#fff" d="M 1.0625 -21.953125 L 1.453125 -30.140625 C 2.273438 -30.441406 3.210938 -30.882812 4.265625 -31.46875 C 5.316406 -32.0625 6.390625 -32.742188 7.484375 -33.515625 C 8.578125 -34.296875 9.609375 -35.113281 10.578125 -35.96875 C 11.546875 -36.832031 12.351562 -37.679688 13 -38.515625 L 13.21875 -38.5 L 12.78125 -29.59375 L 19.28125 -29.28125 L 18.890625 -21.09375 L 12.390625 -21.40625 L 11.921875 -11.640625 C 11.828125 -9.679688 12.046875 -8.359375 12.578125 -7.671875 C 13.117188 -6.984375 13.921875 -6.613281 14.984375 -6.5625 C 15.648438 -6.53125 16.25 -6.628906 16.78125 -6.859375 C 17.3125 -7.097656 17.785156 -7.4375 18.203125 -7.875 C 18.285156 -6.570312 18.457031 -5.3125 18.71875 -4.09375 C 18.976562 -2.875 19.195312 -1.769531 19.375 -0.78125 C 18.625 -0.132812 17.59375 0.375 16.28125 0.75 C 14.96875 1.132812 13.617188 1.296875 12.234375 1.234375 C 9.015625 1.078125 6.632812 0.015625 5.09375 -1.953125 C 3.5625 -3.929688 2.878906 -6.65625 3.046875 -10.125 L 3.609375 -21.828125 Z M 1.0625 -21.953125" transform="translate(157.856304, 210.617141)"></path><path fill="#fff" d="M 16.0625 2.265625 C 13.550781 2.015625 11.398438 1.378906 9.609375 0.359375 C 7.816406 -0.660156 6.382812 -1.953125 5.3125 -3.515625 C 4.25 -5.078125 3.507812 -6.832031 3.09375 -8.78125 C 2.6875 -10.726562 2.59375 -12.765625 2.8125 -14.890625 C 3.019531 -17.003906 3.53125 -18.972656 4.34375 -20.796875 C 5.164062 -22.617188 6.285156 -24.1875 7.703125 -25.5 C 9.128906 -26.820312 10.832031 -27.800781 12.8125 -28.4375 C 14.800781 -29.070312 17.082031 -29.257812 19.65625 -29 C 21.832031 -28.78125 23.6875 -28.140625 25.21875 -27.078125 C 26.75 -26.015625 27.894531 -24.726562 28.65625 -23.21875 C 29.414062 -21.707031 29.71875 -20.195312 29.5625 -18.6875 C 29.414062 -17.257812 28.894531 -15.910156 28 -14.640625 C 27.113281 -13.367188 25.765625 -12.394531 23.953125 -11.71875 C 22.140625 -11.050781 19.757812 -10.867188 16.8125 -11.171875 L 11.796875 -11.671875 C 11.972656 -10.128906 12.535156 -8.875 13.484375 -7.90625 C 14.429688 -6.945312 15.707031 -6.390625 17.3125 -6.234375 C 18.363281 -6.117188 19.289062 -6.238281 20.09375 -6.59375 C 20.894531 -6.945312 21.570312 -7.375 22.125 -7.875 C 22.6875 -8.382812 23.085938 -8.816406 23.328125 -9.171875 C 23.921875 -7.984375 24.65625 -6.816406 25.53125 -5.671875 C 26.40625 -4.535156 27.242188 -3.523438 28.046875 -2.640625 C 26.585938 -0.765625 24.785156 0.578125 22.640625 1.390625 C 20.492188 2.203125 18.300781 2.492188 16.0625 2.265625 Z M 11.75 -12.171875 C 13.15625 -12.296875 14.53125 -12.613281 15.875 -13.125 C 17.226562 -13.632812 18.375 -14.328125 19.3125 -15.203125 C 20.257812 -16.085938 20.796875 -17.144531 20.921875 -18.375 C 20.972656 -18.945312 20.828125 -19.523438 20.484375 -20.109375 C 20.140625 -20.703125 19.507812 -21.046875 18.59375 -21.140625 C 17.757812 -21.222656 16.847656 -21.015625 15.859375 -20.515625 C 14.867188 -20.023438 13.988281 -19.234375 13.21875 -18.140625 C 12.445312 -17.046875 11.976562 -15.660156 11.8125 -13.984375 C 11.75 -13.347656 11.726562 -12.742188 11.75 -12.171875 Z M 11.75 -12.171875" transform="translate(177.706844, 211.453672)"></path><path fill="#fff" d="M 10.75 2.40625 C 9.070312 2.132812 7.707031 1.429688 6.65625 0.296875 C 5.601562 -0.828125 4.8125 -2.21875 4.28125 -3.875 C 3.757812 -5.539062 3.460938 -7.3125 3.390625 -9.1875 C 3.316406 -11.070312 3.429688 -12.90625 3.734375 -14.6875 C 4.035156 -16.53125 4.5625 -18.328125 5.3125 -20.078125 C 6.0625 -21.828125 7.054688 -23.378906 8.296875 -24.734375 C 9.535156 -26.085938 11.03125 -27.085938 12.78125 -27.734375 C 14.539062 -28.378906 16.566406 -28.515625 18.859375 -28.140625 C 19.921875 -27.972656 20.820312 -27.675781 21.5625 -27.25 C 22.300781 -26.820312 22.945312 -26.3125 23.5 -25.71875 L 24.03125 -29.03125 C 24.082031 -29.34375 24.132812 -29.828125 24.1875 -30.484375 C 24.238281 -31.148438 24.191406 -31.859375 24.046875 -32.609375 C 23.910156 -33.367188 23.597656 -34.050781 23.109375 -34.65625 C 22.628906 -35.257812 21.875 -35.644531 20.84375 -35.8125 L 20.890625 -36.015625 C 21.953125 -35.898438 23.113281 -35.90625 24.375 -36.03125 C 25.632812 -36.15625 26.890625 -36.367188 28.140625 -36.671875 C 29.398438 -36.984375 30.585938 -37.316406 31.703125 -37.671875 C 32.828125 -38.023438 33.78125 -38.351562 34.5625 -38.65625 L 28.328125 -0.71875 C 28.148438 0.332031 28.109375 1.382812 28.203125 2.4375 C 28.304688 3.488281 28.5625 4.257812 28.96875 4.75 L 18.765625 3.078125 L 20.328125 -6.453125 L 15.625 1.515625 C 15.019531 1.929688 14.300781 2.222656 13.46875 2.390625 C 12.632812 2.566406 11.726562 2.570312 10.75 2.40625 Z M 12.234375 -12.5 C 11.503906 -8.050781 12.46875 -5.609375 15.125 -5.171875 C 16.351562 -4.972656 17.40625 -5.15625 18.28125 -5.71875 C 19.164062 -6.28125 19.925781 -7.007812 20.5625 -7.90625 L 22.46875 -19.515625 C 21.820312 -19.816406 21.082031 -20.035156 20.25 -20.171875 C 18.8125 -20.398438 17.53125 -20.171875 16.40625 -19.484375 C 15.289062 -18.804688 14.378906 -17.835938 13.671875 -16.578125 C 12.960938 -15.328125 12.484375 -13.96875 12.234375 -12.5 Z M 12.234375 -12.5" transform="translate(205.185289, 214.165856)"></path></svg> 